<?xml version="1.0" encoding="UTF-8"?><svg id="Layer_2" xmlns="http://www.w3.org/2000/svg" viewBox="0 0 132.87 104.68"><defs><style>.cls-1{fill:#151e3f;}.cls-2{fill:#09bc8a;}</style></defs><g id="Layer_1-2"><path class="cls-1" d="M132.87,54.68c0,28.92-24.57,52.12-53.97,49.85-25-1.93-44.89-22.56-45.98-47.61-.3-6.9,.8-13.51,3.04-19.57,.32-.86,1.35-1.21,2.15-.75l6.17,3.57c.62,.36,.89,1.1,.66,1.79-1.55,4.63-2.28,9.63-2.01,14.84,1.05,20.32,17.56,36.82,37.88,37.84,23.21,1.17,42.36-17.46,42.06-40.48-.27-20.94-17.04-38.37-37.95-39.41-12.73-.63-24.24,4.69-31.98,13.43-.48,.54-1.26,.68-1.88,.32l-6.17-3.56c-.8-.46-1.01-1.53-.42-2.24,9.16-11,22.96-17.99,38.4-17.99,27.61,0,50,22.38,50,50Z"/><path class="cls-1" d="M112.77,52.18c1.46,18.06-13.08,33.11-30.98,32.48-15.2-.53-27.78-12.66-28.84-27.83-.22-3.12,.04-6.14,.71-9,.23-.98,1.35-1.47,2.22-.96l6.43,3.72c.54,.31,.81,.91,.73,1.53-.11,.84-.17,1.7-.17,2.57,0,11.04,8.95,20,20,20s20.63-9.6,19.97-21.18c-.59-10.23-9.08-18.49-19.33-18.81-4.81-.15-9.24,1.39-12.75,4.08-.49,.38-1.15,.44-1.69,.13l-6.42-3.71c-.87-.5-1.01-1.71-.28-2.4,5.99-5.63,14.3-8.81,23.34-7.98,14.36,1.32,25.89,12.99,27.06,27.37Z"/><path class="cls-2" d="M19.18,17.25c-.01,.08-.03,.16-.06,.23l-.03,.09c-.08,.19-.2,.36-.35,.51-.12,.11-.25,.2-.4,.27-.08,.05-.16,.07-.24,.09l-2.65,.71-12.86,3.44c-.79,.22-1.62-.26-1.83-1.06L.05,18.88c-.21-.79,.27-1.62,1.06-1.83l11.41-3.05L9.47,2.59c-.21-.8,.27-1.62,1.06-1.83L13.18,.05c.8-.22,1.62,.26,1.84,1.06l3.43,12.86,.7,2.64c.06,.22,.07,.43,.03,.64Z"/><path class="cls-2" d="M19.18,17.25c.04-.21,.03-.42-.03-.64l-.7-2.64,.71,2.64c.06,.22,.06,.43,.02,.64Z"/><polygon class="cls-2" points="15.45 19.15 18.1 18.44 18.09 18.45 15.45 19.15"/><path class="cls-2" d="M18.34,18.35c.15-.07,.28-.16,.4-.27-.11,.11-.25,.21-.4,.27Z"/><path class="cls-2" d="M19.09,17.57c-.08,.19-.2,.37-.35,.51,.15-.15,.27-.32,.35-.51Z"/><path class="cls-2" d="M90.38,41.69c-5.07-2.93-11.14-2.56-15.73,.44-.45,.29-.89,.61-1.31,.97-.41,.32-.8,.68-1.16,1.06l-4.43-2.56-8.76-5.07h-.01l-8.71-5.04-8.69-5.02-9.2-5.32s-.06-.04-.1-.05h-.01l-.43-1.63-.4-1.51h-.01l-2.32-8.7c-.22-.8-1.04-1.28-1.84-1.06l-2.65,.7c-.79,.22-1.27,1.04-1.06,1.84l3.04,11.4h0l-11.4,3.05c-.79,.22-1.27,1.04-1.06,1.84l.71,2.65c.21,.8,1.04,1.27,1.83,1.06l8.7-2.32,1.5-.4,1.64-.44s.06,.04,.1,.06l9.2,5.32,8.7,5.03,8.7,5.03,8.76,5.07,4.44,2.56c-.14,.51-.26,1.02-.34,1.54-.1,.54-.16,1.09-.18,1.63-.32,5.47,2.39,10.91,7.46,13.84,7.17,4.15,16.35,1.7,20.5-5.47,4.14-7.17,1.69-16.35-5.48-20.5Zm-7.51,20.49c-3.58,0-6.57-2.51-7.32-5.86-.11-.5-.17-1.02-.18-1.56v-.08c0-1.29,.33-2.51,.91-3.58,.67-1.24,1.69-2.27,2.92-2.95h0c.45-.27,.93-.48,1.44-.63,.7-.22,1.45-.34,2.23-.34,4.14,0,7.5,3.36,7.5,7.5s-3.36,7.5-7.5,7.5Z"/></g></svg>