<svg width="272" height="51" viewBox="0 0 272 51" fill="none" xmlns="http://www.w3.org/2000/svg">
<g opacity="0.5" clip-path="url(#clip0_87_222)">
<path d="M193.338 36.3006C191.899 35.9933 190.424 35.8949 188.986 35.5015C182.457 33.7312 177.454 28.2111 176.716 21.5477C175.634 11.8846 181.535 4.5942 190.203 2.82386C196.03 1.63133 201.55 2.57797 206.259 6.48749C210.033 9.62248 211.902 13.6918 212.148 18.6094C212.578 27.0801 206.738 34.4319 197.604 36.0056C196.878 36.1285 196.116 35.9564 195.415 36.3006H193.338ZM206.32 19.1381C206.369 15.8925 205.607 12.6222 203.603 9.70854C199.571 3.81968 191.518 3.08203 186.49 8.1349C181.314 13.323 181.031 24.3754 185.937 29.8339C191.321 35.8089 200.173 34.8745 204.206 27.8915C205.73 25.2605 206.333 22.396 206.32 19.1381Z" fill="black"/>
<path d="M54.2178 18.5356C54.5866 17.6996 54.4022 16.7899 54.6112 15.917C56.3692 8.66349 61.1885 4.52039 68.2207 2.8361C73.1261 1.65587 77.9453 2.14763 82.4573 4.55727C85.9734 6.43826 86.6372 7.87667 86.0471 11.7616C86.0103 12.0075 86.0225 12.2657 85.7398 12.3763C85.4324 12.4869 85.2849 12.2534 85.1497 12.0567C84.953 11.7739 84.8054 11.4665 84.621 11.1715C81.6582 6.24156 77.1585 4.16386 71.6016 4.80315C66.1799 5.41785 62.8236 8.86019 61.2008 13.9008C59.7747 18.3389 59.9837 22.7894 62.2212 26.9448C64.5817 31.3461 68.233 33.7434 73.3719 33.6573C75.2038 33.6205 77.0233 33.4852 78.7813 32.9443C81.2279 32.1821 83.1334 30.6822 84.6948 28.6905C84.953 28.3709 85.1251 27.7931 85.6906 28.0267C86.1455 28.2111 85.9734 28.7028 86.0103 29.0839C86.1701 30.633 85.6414 31.7764 84.3014 32.7107C81.2524 34.8376 77.8716 35.9072 74.1956 36.0916C69.6837 36.3252 65.4546 35.4031 61.668 32.8336C57.3774 29.9199 54.8571 25.9367 54.4022 20.724C54.3776 20.4781 54.2792 20.2445 54.2178 20.0109V18.5356Z" fill="black"/>
<path d="M158.631 36.3005C157.095 35.9932 155.509 35.9563 153.984 35.5014C147.554 33.5835 142.932 29.7232 141.407 23.0229C139.649 15.3022 143.042 8.08562 150.284 4.54493C156.197 1.65582 162.27 1.60664 168.331 4.22528C168.823 4.44657 169.303 4.70475 169.77 4.98751C172.511 6.63492 173.433 8.92162 172.622 12.0074C172.573 12.1918 172.548 12.4008 172.315 12.4623C172.081 12.5238 171.934 12.3885 171.823 12.2287C171.614 11.8968 171.43 11.5525 171.233 11.2083C168.59 6.65951 164.459 4.64328 159.369 4.76622C154.525 4.88916 150.935 7.39715 148.772 11.7001C146.325 16.5808 146.325 21.6214 148.612 26.539C150.48 30.5469 153.628 33.1041 158.14 33.645C162.184 34.1245 166.008 33.4483 169.327 30.8788C170.2 30.2027 170.876 29.3667 171.54 28.5061C171.712 28.2725 171.934 28.0143 172.266 28.1127C172.622 28.211 172.585 28.5553 172.622 28.8503C172.819 30.4854 172.376 31.8009 170.925 32.809C168.221 34.6777 165.246 35.7473 162 36.0915C161.557 36.1407 161.103 36.0669 160.697 36.3005H158.619H158.631Z" fill="black"/>
<path d="M100.456 35.2312H92.4402C92.268 35.0222 92.2926 34.8501 92.4156 34.764C93.4114 34.1247 93.6081 33.1904 93.6081 32.0839C93.5958 24.6829 93.6081 17.2818 93.6327 9.88082C93.6327 8.79894 93.5712 7.70477 93.6081 6.62289C93.6573 5.44266 93.5343 4.36078 92.1328 3.58625C93.4606 3.15596 94.6039 3.22972 95.6735 3.19284C99.1773 3.10678 102.681 2.89778 106.185 3.31578C107.882 3.51249 109.467 3.96737 110.98 4.75419C116.266 7.54494 116.967 14.0485 112.418 17.9334C111.471 18.7326 110.439 19.421 109.32 19.9374C108.779 20.1833 108.693 20.4537 109.099 20.9455C112.246 24.7935 114.901 29.0596 118.602 32.465C119.401 33.2027 120.225 33.9157 121.221 34.3706C121.479 34.4936 121.848 34.5304 121.798 34.9238C121.749 35.2804 121.393 35.3296 121.11 35.3541C118.024 35.5508 115.086 35.2189 112.676 32.9691C110.857 31.2725 109.418 29.2563 107.931 27.3015C106.886 25.9246 105.792 24.5845 104.845 23.1461C104.033 21.9167 103.001 21.4372 101.587 21.6094C101.046 21.6708 100.505 21.7323 99.9641 21.7815C99.3494 21.8307 99.1158 22.1749 99.1281 22.765C99.2019 26.1213 98.9683 29.4653 99.3003 32.8216C99.3986 33.7928 99.9887 34.3706 100.714 34.9361L100.468 35.2312H100.456ZM99.1404 12.7699H99.1036C99.1036 14.6878 99.1281 16.6057 99.1036 18.5236C99.0913 19.3473 99.3986 19.6792 100.235 19.6546C101.316 19.6177 102.398 19.6546 103.493 19.6423C106.21 19.5931 108.152 18.1424 109.049 15.5853C109.332 14.7862 109.517 13.9502 109.517 13.1265C109.529 10.3726 108.988 7.81541 106.308 6.30324C104.71 5.39348 102.952 5.24595 101.157 5.28283C99.3494 5.30742 99.2265 5.3443 99.165 7.17612C99.1036 9.04482 99.1527 10.9135 99.1527 12.7822L99.1404 12.7699Z" fill="black"/>
<path d="M261.963 35.0714C263.869 34.0878 263.279 32.8584 262.688 31.5921C261.926 29.9939 261.164 28.3834 260.451 26.7606C260.107 25.986 259.627 25.6418 258.754 25.6541C254.906 25.691 251.046 25.691 247.198 25.6541C246.325 25.6541 245.858 25.9492 245.551 26.7729C244.874 28.617 244.137 30.4488 243.338 32.256C242.87 33.3133 242.883 34.1493 244.026 34.7148C244.124 34.764 244.174 34.9361 244.235 35.0468C244.014 35.4894 243.645 35.4156 243.313 35.3664C241.789 35.1328 240.264 35.1328 238.74 35.3418C238.408 35.391 238.002 35.5385 237.83 35.1205C237.682 34.7394 238.088 34.6411 238.322 34.5058C239.293 33.9157 239.883 33.0183 240.375 32.047C244.936 22.974 249.3 13.8149 253.468 4.54518C253.751 3.90589 253.8 2.92236 254.734 2.92236C255.595 2.92236 255.632 3.8813 255.89 4.45912C259.824 13.3969 264.078 22.1749 268.405 30.916C269.094 32.2929 269.819 33.633 271.147 34.5181C271.343 34.6534 271.589 34.8009 271.54 35.0837C271.479 35.3787 271.196 35.4279 270.95 35.4033C268.196 35.0591 265.442 35.2066 262.676 35.391C262.553 35.391 262.418 35.2804 261.963 35.0714ZM252.902 10.3234C252.718 10.6307 252.632 10.7414 252.57 10.8766C250.837 14.737 249.116 18.6096 247.37 22.4576C246.977 23.3305 247.382 23.4904 248.132 23.4904C251.341 23.4904 254.55 23.4904 257.759 23.4904C258.804 23.4904 258.84 23.392 258.373 22.347C257.082 19.4702 255.791 16.6057 254.488 13.7289C254.009 12.6716 253.505 11.6143 252.915 10.3357L252.902 10.3234Z" fill="black"/>
<path d="M230.675 27.9654C231.965 25.0886 233.244 22.2118 234.535 19.3472C236.428 15.1181 238.235 10.852 239.944 6.5368C240.35 5.5041 240.719 4.56975 239.416 3.90587C239.256 3.81981 239.096 3.6477 239.219 3.41411C239.317 3.2174 239.514 3.15593 239.711 3.18052C241.481 3.4387 243.251 3.4264 245.022 3.18052C245.28 3.14364 245.538 3.21741 245.6 3.51246C245.649 3.72146 245.477 3.89358 245.305 3.97964C243.694 4.75416 243.104 6.31551 242.391 7.76621C238.063 16.4581 233.834 25.2115 229.912 34.1001C229.654 34.7025 229.58 35.6246 228.757 35.6738C227.773 35.7352 227.761 34.7025 227.49 34.0878C223.483 25.1254 219.266 16.2737 214.877 7.49574C214.213 6.16798 213.512 4.86481 212.16 4.0657C211.926 3.93046 211.582 3.75834 211.754 3.38952C211.902 3.05758 212.258 3.10676 212.541 3.15593C214.41 3.48787 216.291 3.31576 218.159 3.32805C218.946 3.32805 219.733 3.19282 220.52 3.14364C220.766 3.13135 221.036 3.16823 221.11 3.46329C221.171 3.68458 221.011 3.8444 220.839 3.94276C219.721 4.60664 220.065 5.49181 220.471 6.38928C222.954 11.811 225.437 17.2449 227.908 22.6666C228.72 24.4493 229.519 26.2319 230.318 28.0146L230.662 27.9654H230.675Z" fill="black"/>
<path d="M126.482 35.0341C127.749 34.1736 127.736 32.9564 127.798 31.6902C128.105 25.2358 127.945 18.7691 127.97 12.3147C127.97 10.1509 127.835 7.97489 127.761 5.81113C127.736 5.08578 127.577 4.44649 126.95 3.99161C126.716 3.81949 126.396 3.62278 126.593 3.29084C126.765 3.00808 127.122 3.06955 127.404 3.09414C128.29 3.1679 129.175 3.26626 130.06 3.32773C131.302 3.42608 132.519 3.1679 133.748 3.09414C134.068 3.06955 134.486 2.93432 134.658 3.36461C134.793 3.72114 134.424 3.86867 134.215 4.04078C133.613 4.52025 133.478 5.15954 133.478 5.88489C133.367 14.7612 133.379 23.6375 133.478 32.5139C133.478 33.3499 133.674 34.0752 134.437 34.5547C134.597 34.653 134.756 34.8129 134.707 35.0219C134.646 35.2431 134.412 35.3169 134.228 35.3046C131.683 35.0833 129.126 35.28 126.495 35.0219L126.482 35.0341Z" fill="black"/>
<path d="M20.2985 12.7941C16.1431 12.6589 12.4303 12.1794 8.98797 10.532C8.05362 10.0894 7.64791 10.3968 7.22991 11.159C5.70545 13.9743 5.09074 17.011 5.32433 20.1583C5.65627 24.6579 7.07009 28.8133 10.4633 31.9483C17.8397 38.7838 26.9373 37.247 32.4328 30.4115C33.2688 29.3665 34.0679 28.2969 34.5719 27.0552C34.9285 26.1824 35.3711 26.1824 36.0103 26.6987C36.2071 26.8462 36.4038 27.0061 36.625 27.1167C37.461 27.5593 37.5717 28.1002 37.0185 28.8871C33.2934 34.2473 28.3511 37.6281 21.7 38.0093C14.0162 38.4396 7.94297 35.3169 3.60316 29.0715C-0.626 22.9736 -0.306354 15.2283 4.21787 9.14277C4.83257 8.30677 4.93092 7.79042 4.36539 6.84378C2.44752 3.61043 4.20557 0.635268 7.95526 0.512327C10.0084 0.450857 12 0.61068 13.9056 1.42209C14.5818 1.70485 15.2211 1.65568 15.9218 1.49585C20.2125 0.561503 24.4539 0.721326 28.597 2.28267C29.6666 2.68838 30.6747 3.21702 31.6091 3.85632C34.1171 5.57749 34.0802 8.36824 31.4492 9.99106C29.1502 11.4049 26.5931 12.1917 23.913 12.4868C22.5975 12.6343 21.2697 12.8925 20.3108 12.7941H20.2985ZM20.2739 8.99524C19.5855 8.58953 19.4379 7.98712 19.1429 7.48307C18.3438 6.1676 17.434 4.95049 16.1677 4.04073C15.6391 3.65961 15.135 3.56126 14.5203 3.85632C12.7622 4.7169 11.2501 5.87254 9.92232 7.29866C9.50432 7.75354 9.41826 8.12236 10.0207 8.47889C10.3157 8.651 10.5985 8.86 10.8935 9.03212C15.7005 11.8229 20.8149 12.0688 26.089 10.7902C26.9988 10.5689 27.8594 10.1878 28.597 9.56077C30.4165 7.99942 30.4165 6.11843 28.4618 4.76608C25.5727 2.77444 22.2902 2.25809 18.8601 2.62691C18.27 2.68838 17.5938 2.71297 17.0775 3.18014C19.2658 5.17178 20.1141 6.68395 20.2739 8.98295V8.99524ZM12.2828 2.47938C10.6968 1.65568 9.1355 1.63109 7.61103 2.4425C6.47998 3.04491 6.08657 4.13908 6.52915 5.18408C6.73815 5.67584 7.0578 5.92172 7.54956 5.52831C9.01255 4.36037 10.6108 3.41373 12.2951 2.49167L12.2828 2.47938Z" fill="black"/>
<path d="M23.0154 21.4613C23.0154 22.6784 21.8475 23.7603 20.5935 23.7357C19.3149 23.7111 18.2453 22.6169 18.2822 21.3629C18.3068 20.1827 19.3518 19.2237 20.6303 19.1992C21.9212 19.1746 23.0277 20.2196 23.0277 21.4736L23.0154 21.4613Z" fill="black"/>
<path d="M23.4948 23.9941C24.7488 23.9941 25.929 25.0883 25.9413 26.3054C25.9536 27.498 24.9086 28.5061 23.63 28.5184C22.29 28.5429 21.2081 27.5348 21.1958 26.2685C21.1958 25.0883 22.29 24.0064 23.4825 23.9941H23.4948Z" fill="black"/>
<path d="M20.0896 26.3791C20.065 27.6823 18.9954 28.6166 17.6062 28.5552C16.303 28.4937 15.3687 27.5225 15.4179 26.2562C15.4548 25.0514 16.5489 24.0064 17.7415 24.0187C19.0446 24.0187 20.1142 25.1005 20.0896 26.3791Z" fill="black"/>
<path d="M20.0649 16.5194C20.0895 17.7366 18.9339 18.8307 17.6553 18.8184C16.4259 18.8184 15.344 17.7734 15.3194 16.5932C15.3071 15.4499 16.4136 14.3065 17.5815 14.2573C18.8232 14.1959 20.0404 15.3023 20.0649 16.5194Z" fill="black"/>
<path d="M14.1761 16.5809C14.1761 17.9086 13.1557 18.9167 11.8279 18.8798C10.5617 18.8553 9.59042 17.8594 9.57812 16.6054C9.57812 15.3392 10.5371 14.3556 11.8034 14.3065C13.1434 14.2573 14.1761 15.2408 14.1884 16.5809H14.1761Z" fill="black"/>
<path d="M23.5197 14.2202C24.7737 14.2447 25.9294 15.4127 25.8679 16.6052C25.8064 17.8715 24.8229 18.7567 23.5075 18.7444C22.1797 18.7444 21.0855 17.6625 21.1593 16.4331C21.2208 15.2283 22.3272 14.1956 23.5197 14.2202Z" fill="black"/>
<path d="M23.0525 31.1002C23.0894 32.3419 21.983 33.4976 20.729 33.4853C19.5487 33.4853 18.3931 32.4157 18.3439 31.2846C18.2824 30.0061 19.3151 28.9733 20.6798 28.9611C21.9338 28.9488 23.0157 29.92 23.0525 31.1125V31.1002Z" fill="black"/>
<path d="M28.7938 21.4248C28.7692 22.6665 27.6136 23.7606 26.3719 23.7115C25.1671 23.6623 24.1344 22.5927 24.1221 21.4002C24.1221 20.1585 25.2285 19.1381 26.5563 19.1873C27.8718 19.2364 28.8184 20.1831 28.7938 21.4248Z" fill="black"/>
<path d="M17.1268 21.4125C17.1514 22.6665 16.0818 23.736 14.7909 23.7483C13.5984 23.7483 12.5534 22.7156 12.5288 21.5108C12.5042 20.2568 13.4386 19.261 14.7048 19.1872C15.9957 19.1258 17.1145 20.1339 17.1391 21.4125H17.1268Z" fill="black"/>
<path d="M31.6708 16.4333C31.6953 17.7119 30.6503 18.7569 29.3349 18.7446C28.0194 18.7446 27.0974 17.8471 27.0605 16.5563C27.0359 15.2777 28.0932 14.1958 29.3595 14.1958C30.5766 14.1958 31.6339 15.2285 31.6585 16.421L31.6708 16.4333Z" fill="black"/>
<path d="M128.905 45.9637C128.204 47.2668 127.638 48.3364 127.036 49.3937C126.47 50.3895 126.274 50.3895 125.72 49.3691C125.155 48.3364 124.639 47.2791 123.95 45.9391C123.729 47.525 123.089 48.779 124.012 50.1068C123.385 50.3772 122.831 50.242 122.106 50.1928C122.733 49.1355 123.016 48.1274 123.016 47.0578C123.016 46.0743 123.434 45.017 122.573 44.1441C124.442 43.8122 124.479 43.8368 125.278 45.3613C125.757 46.271 126.212 47.1931 126.827 48.3733C127.417 47.2177 127.946 46.3079 128.364 45.349C128.868 44.181 129.655 43.677 130.921 44.0335C130.294 46.0866 130.613 48.0659 131.277 50.1559C130.564 50.3895 129.753 50.2051 128.794 50.2666C129.47 48.8528 129.347 47.5496 128.905 45.9391V45.9637Z" fill="black"/>
<path d="M197.653 46.1356C197.161 48.2625 197.198 48.9264 197.8 50.1558C197.112 50.3525 196.46 50.3402 195.784 50.1435C196.817 48.1887 197.112 46.2094 196.559 44.1194C198.071 43.8366 198.095 43.8612 198.845 45.2381C199.349 46.1725 199.878 47.1068 200.481 48.1887C201.255 47.2052 201.612 46.234 202.091 45.3365C202.878 43.8612 202.89 43.8489 204.501 44.1071C203.898 46.1356 204.439 48.0904 204.845 50.1681C204.181 50.3894 203.443 50.2541 202.571 50.2172C203.087 48.8034 202.804 47.5126 202.755 45.9266C201.808 47.07 201.427 48.1887 200.837 49.1722C200.628 49.5288 200.554 50.1189 200.026 50.1066C199.595 50.1066 199.497 49.5657 199.313 49.2337C198.784 48.2994 198.292 47.3404 197.628 46.1356H197.653Z" fill="black"/>
<path d="M215.946 44.0454C216.881 43.7749 217.766 43.9839 218.577 44.8445C219.598 45.9141 220.741 46.8607 222.093 48.1147C221.934 46.5903 222.647 45.2871 221.319 44.1438C222.02 43.8733 222.671 43.9593 223.433 44.0577C222.45 45.41 222.966 46.8607 222.819 48.2254C222.745 48.877 223.175 49.8113 222.462 50.1064C221.872 50.34 221.454 49.4671 220.999 49.0491C219.831 47.9918 218.688 46.9099 217.237 45.5699C217.372 47.3156 216.659 48.8155 218.061 50.131C217.274 50.34 216.635 50.34 215.983 50.131C216.709 48.0656 216.807 46.0862 215.946 44.0454Z" fill="black"/>
<path d="M102.337 44.0454C103.259 43.7749 104.144 43.9839 104.956 44.8445C105.976 45.9141 107.107 46.8608 108.336 47.8197C108.324 46.5534 109.074 45.2256 107.673 44.1069C108.422 43.9102 109.037 43.9348 109.836 44.0823C109.037 44.9921 109.222 46.0125 109.209 47.0083C109.209 47.6967 109.222 48.3852 109.209 49.0737C109.197 49.4548 109.332 49.9466 108.902 50.131C108.447 50.3277 108.213 49.8605 107.943 49.6023C106.603 48.3729 105.287 47.1189 103.665 45.5945C103.702 47.3033 103.247 48.6926 104.206 50.0695C103.579 50.4137 102.988 50.2539 102.374 50.1924C103.111 48.0656 103.21 46.0862 102.362 44.0577L102.337 44.0454Z" fill="black"/>
<path d="M189.219 50.3649C186.551 50.3403 184.818 48.2626 185.617 46.062C186.109 44.7219 187.596 43.7138 189.268 43.763C190.805 43.8121 192.219 44.2424 192.944 45.7792C193.62 47.2053 193.042 48.8527 191.616 49.7256C190.891 50.1682 190.141 50.3649 189.219 50.3526V50.3649ZM191.567 47.2422C191.567 45.4227 190.657 44.3777 189.133 44.4022C187.83 44.4268 187.006 45.3735 186.994 46.8734C186.994 48.5331 188.051 49.8485 189.428 49.8608C190.743 49.8731 191.579 48.8527 191.567 47.2422Z" fill="black"/>
<path d="M119.954 47.0945C119.991 47.5986 119.831 48.1026 119.549 48.5821C118.221 50.8565 114.127 50.9548 112.701 48.7419C111.57 46.9839 112.467 44.7586 114.594 44.021C117.299 43.0866 119.979 44.5988 119.954 47.0945ZM118.344 47.2174C118.344 45.4594 117.508 44.4144 116.057 44.3898C114.631 44.3652 113.721 45.3979 113.746 47.0085C113.783 48.5206 114.914 49.8238 116.192 49.8484C117.496 49.8607 118.332 48.8403 118.332 47.2297L118.344 47.2174Z" fill="black"/>
<path d="M143.633 45.6682C143.67 47.3156 143.141 48.7295 144.26 50.0326C143.571 50.4506 142.895 50.1924 141.961 50.3154C142.871 49.2458 142.981 48.2254 142.895 47.1681C142.809 46.1354 143.252 44.9798 142.022 44.1561C143.24 43.7872 144.125 43.9716 144.924 44.8199C145.92 45.8772 147.002 46.873 148.243 48.0902C148.317 46.5534 148.71 45.3117 147.764 44.1315C148.452 43.8733 149.104 43.9348 149.915 44.1069C148.76 44.9552 149.079 46.0985 149.042 47.1435C148.993 48.1516 149.128 49.1843 148.907 50.4998C146.965 49.0245 145.563 47.2665 143.645 45.6682H143.633Z" fill="black"/>
<path d="M139.564 48.7666C139.637 49.9346 139.207 50.2788 138.433 50.2788C137.056 50.2788 135.679 50.2788 134.24 50.2788C134.806 48.1642 134.88 46.148 134.265 44.058C135.556 43.8613 136.933 43.9842 138.297 43.9842C138.605 43.9842 138.887 44.0703 139.01 44.4022C139.084 44.5866 139.121 44.8079 138.949 44.9432C138.863 45.0046 138.642 45.0046 138.555 44.9432C138.15 44.6235 137.707 44.4637 137.191 44.4637C136.601 44.4637 136.22 44.6481 136.244 45.2997C136.256 45.73 136.097 46.2095 136.539 46.5291C136.834 46.7381 137.326 46.6275 138.162 46.1603C138.506 46.2955 138.506 46.6152 138.506 46.8979C138.506 47.4389 138.531 47.8446 137.683 47.5249C136.527 47.0946 136.134 47.5249 136.232 48.7052C136.281 49.3076 136.539 49.5903 137.142 49.6149C137.99 49.6518 138.801 49.578 139.564 48.7789V48.7666Z" fill="black"/>
<path d="M157.722 43.9717C159 43.9717 160.279 43.9717 161.557 43.9717C161.853 43.9717 162.172 43.9717 162.369 44.2422C162.516 44.4512 162.602 44.697 162.418 44.9183C162.258 45.1027 162.074 45.0167 161.902 44.8814C161.545 44.5864 161.127 44.4757 160.672 44.4634C159.996 44.4266 159.689 44.7093 159.664 45.4101C159.627 46.5288 160.045 46.8731 161.078 46.4797C161.287 46.3936 161.398 46.074 161.693 46.1969C161.963 46.4182 161.963 46.7256 161.951 47.0083C161.939 47.5493 161.828 47.8812 161.152 47.5124C160.721 47.2665 160.144 47.1804 159.812 47.6722C159.529 48.0902 159.59 48.6434 159.738 49.1106C159.922 49.7499 160.512 49.5655 160.98 49.627C161.717 49.713 162.307 49.4057 162.947 48.8278C163.07 49.7376 162.861 50.254 162.049 50.2785C160.574 50.3031 159.111 50.3892 157.648 50.2171C158.3 48.164 158.25 46.1846 157.709 43.9963L157.722 43.9717Z" fill="black"/>
<path d="M208.165 43.984C209.48 43.984 210.795 43.9471 212.123 43.9963C212.799 44.0209 212.799 44.0823 212.849 45.0413C212.246 45.0044 211.853 44.3897 211.213 44.4634C210.832 44.5126 210.365 44.3651 210.205 44.8569C210.058 45.324 210.021 45.8527 210.242 46.3076C210.451 46.7379 210.968 46.7256 211.287 46.578C212.517 46.0371 212.492 46.6887 212.357 47.5124C212 47.8566 211.779 47.5124 211.521 47.4509C210.857 47.3157 210.218 47.1681 210.132 48.1763C210.045 49.209 210.304 49.5286 211.287 49.6147C212.111 49.6884 212.787 49.3811 213.525 48.8647C213.574 49.7622 213.316 50.2663 212.492 50.2663C211.029 50.2663 209.554 50.3769 208.103 50.1925C208.804 48.1394 208.742 46.1723 208.189 43.9717L208.165 43.984Z" fill="black"/>
<path d="M165.799 48.6558C166.303 48.9508 166.463 49.5409 167.029 49.7008C167.692 49.8852 168.221 49.7991 168.541 49.1844C168.836 48.5943 168.393 48.2747 167.975 47.9919C167.434 47.6354 166.82 47.4264 166.352 46.9715C165.553 46.1724 165.578 45.0905 166.402 44.3651C167.274 43.6029 168.946 43.5414 169.512 44.2791C169.659 44.4758 169.696 44.734 169.512 44.9798C169.02 45.152 168.91 44.5741 168.528 44.4881C168.024 44.3774 167.508 44.3283 167.225 44.8569C166.942 45.3856 167.188 45.8158 167.668 46.0986C168.049 46.3322 168.455 46.5043 168.836 46.7256C169.573 47.1436 170.065 47.7706 169.955 48.6435C169.832 49.5287 169.168 49.9712 168.356 50.2048C166.844 50.6597 165.861 50.0819 165.824 48.6435L165.799 48.6558Z" fill="black"/>
<path d="M177.097 50.1558C175.868 50.3279 175.056 50.3402 174.171 50.1804C174.983 48.5453 174.565 46.861 174.614 45.2136C174.626 44.6481 174.208 44.5005 173.716 44.4636C173.04 44.4268 172.475 44.7218 171.872 45.1521C171.688 44.2915 171.712 43.8489 172.733 43.8981C174.503 43.9842 176.286 43.9227 178.068 43.9227C178.339 43.9227 178.683 43.726 178.818 44.144C178.904 44.3899 178.855 44.6481 178.695 44.8448C178.376 45.2505 178.204 44.7833 177.982 44.6849C176.593 44.1071 176.065 44.4391 176.04 45.9266C176.028 46.6643 176.065 47.4142 176.04 48.1519C176.003 48.8895 176.151 49.5165 177.109 50.1435L177.097 50.1558Z" fill="black"/>
</g>
<defs>
<clipPath id="clip0_87_222">
<rect width="270.937" height="50" fill="white" transform="translate(0.615723 0.5)"/>
</clipPath>
</defs>
</svg>
