<svg width="127" height="51" viewBox="0 0 127 51" fill="none" xmlns="http://www.w3.org/2000/svg">
<g opacity="0.5">
<path d="M121.756 5.14076H109.379L102.934 18.4423L96.4874 5.14076H63.7322V14.0281L61.1009 5.14076H46.3681L38.8211 31.9735L38.8316 22.9411H22.0519V31.3303C22.0519 31.3303 28.6943 31.2095 28.7048 31.3303C28.957 34.306 27.5772 36.3289 22.4655 36.2429C17.5485 36.1643 14.5956 30.6133 14.6288 26.119C14.6513 21.9176 16.3331 15.1452 21.9507 14.964C28.7139 14.7437 28.806 20.6933 28.806 20.6933H39.0356V13.2946L30.4395 5.14089H13.6099L5.47729 13.2945V37.7766L13.6099 45.8595H30.408L36.6972 39.4087L34.9098 45.8595H46.368L48.3685 38.293H59.8057L59.8267 38.2854L62.0188 45.8595H84.0946V15.3686H89.2442L93.9285 25.0938L85.947 45.8593H97.3011L103.032 31.537L109.991 45.8593H121.551L112.038 25.0938L121.756 5.14062M50.7702 29.0509L53.8333 17.6242L57.1441 29.0509H50.7702ZM72.7376 44.3951L64.1307 15.3686H72.7375V44.3949" fill="black"/>
</g>
</svg>
