<svg width="198" height="51" viewBox="0 0 198 51" fill="none" xmlns="http://www.w3.org/2000/svg">
<g opacity="0.5">
<path d="M144.226 46.664V48.4528H133.666V31.8579H135.735V46.664H144.226ZM162.588 48.4312H160.39L158.73 43.4528H151.64L150.024 48.4312H147.825L153.149 31.8364H157.114L162.588 48.4312ZM158.127 41.6424L155.131 32.6769L152.222 41.664L158.127 41.6424ZM178.967 43.7545C178.967 46.2976 176.899 48.4312 174.312 48.4312H166.101V31.8364H173.493C175.929 31.8364 178.17 33.7545 178.17 36.4915C178.17 37.7847 177.502 39.0131 176.36 39.5734C178.321 40.1769 178.967 42.095 178.967 43.7545ZM168.149 38.8622H173.493C174.916 38.8622 176.08 37.8062 176.08 36.3838C176.08 34.9614 174.916 33.6467 173.493 33.6467H168.149V38.8622ZM176.877 43.6467C176.877 42.2243 175.713 40.6726 174.291 40.6726H168.149V46.6209H174.312C175.95 46.6209 176.877 45.1769 176.877 43.6467ZM183.149 36.1467C183.149 33.4959 185.799 31.3838 189.075 31.3838C193.019 31.3838 195.002 34.0562 195.002 36.7071H192.868C192.868 35.1984 191.705 33.2803 189.075 33.2803C186.618 33.2803 185.282 34.6381 185.282 36.1467C185.282 37.3321 186.338 38.1941 187.782 38.5605C187.868 38.5821 191.036 39.3148 191.036 39.3148C193.019 39.8105 195.455 41.1252 195.455 43.97C195.455 46.6855 192.588 48.97 189.011 48.8838C184.7 48.7976 182.567 45.7803 182.567 43.0864H184.679C184.679 44.6597 185.929 46.8579 188.967 46.9657C191.295 47.0519 193.256 45.7157 193.256 43.97C193.256 42.6122 192.114 41.7286 190.498 41.3191C190.411 41.2976 187.222 40.5648 187.222 40.5648C185.325 40.1122 183.149 38.8838 183.149 36.1467Z" fill="black"/>
<path d="M18.7086 25.8881V22.9355C17.4586 24.9399 14.7431 26.47 11.9198 26.47C5.94995 26.47 2.19995 21.6855 2.19995 15.3278C2.19995 8.97003 6.40254 4.18555 11.8767 4.18555C17.8034 4.18555 21.2301 7.9571 21.7905 11.8149H17.8896C17.3508 9.55193 15.325 7.41831 11.9844 7.52606C8.23443 7.65537 6.14392 11.3623 6.14392 15.3278C6.14392 19.2933 7.91116 22.72 11.9844 23.1295C14.8724 23.4097 18.1482 21.7933 18.5146 17.7416H11.9844V14.4442H22.0491V25.8881H18.7086ZM36.0793 14.6597C38.256 14.6597 39.312 13.0218 39.312 11.4054C39.312 9.8321 38.062 8.08641 36.5103 8.08641H29.6999V25.8881H25.756V4.76744H36.5103C40.131 4.76744 43.256 7.78469 43.256 11.2545C43.256 14.9614 40.6913 17.914 37.5663 17.9571L43.1051 25.8881H38.5146L32.9543 17.9571C29.6784 17.9571 29.6784 20.608 29.6784 20.608C29.6784 20.608 29.6784 14.6597 32.9543 14.6597H36.0793ZM50.4543 8.10796V13.6683H60.9284V16.9873H50.4543V22.5476H62.0491V25.8881H46.5103V4.76744H62.0491V8.10796H50.4543ZM69.3767 8.10796V13.6683H79.8508V16.9873H69.3767V22.5476H80.9715V25.8881H65.4327V4.76744H80.9715V8.10796H69.3767ZM103.881 4.76744V25.8881H96.1008L88.5793 5.88813V25.8881H84.6353V4.76744H92.4155L99.937 24.7674V4.76744H103.881Z" fill="black"/>
<path d="M111.511 8.10761V13.668H120.498V16.9869H111.511V25.8878H107.567V4.76709H122.373V8.10761H111.511ZM126.015 25.8878V4.76709H129.959V25.8878H126.015ZM150.541 23.2369C149.873 24.2067 148.968 24.9826 147.89 25.4136C147.179 25.7154 146.424 25.8662 145.605 25.8878H133.666V4.76709H144.571C147.825 4.76709 151.23 7.4395 150.368 10.6292C149.679 13.2154 146.381 13.2154 143.924 13.2154C145.39 13.2154 146.575 12.2671 146.575 10.78C146.575 9.3145 145.39 8.12916 143.903 8.12916H137.567V13.2154H143.903C150.649 13.2154 151.511 17.8274 151.511 19.9395C151.532 21.1679 151.166 22.2886 150.541 23.2369ZM147.588 19.53C147.588 18.0214 146.36 16.5774 144.873 16.5774H137.567V22.5473H144.873C146.381 22.5257 147.588 21.0386 147.588 19.53ZM165.347 14.6593C167.524 14.6593 168.58 13.0214 168.58 11.405C168.58 9.83174 167.33 8.08606 165.778 8.08606H158.968V25.8878H155.024V4.76709H165.778C169.399 4.76709 172.524 7.78433 172.524 11.2542C172.524 14.9611 169.959 17.9136 166.834 17.9567L172.373 25.8878H167.782L162.222 17.9567C158.946 17.9567 158.946 20.6076 158.946 20.6076C158.946 20.6076 158.946 14.6593 162.222 14.6593H165.347ZM195.519 25.8878H191.446L189.506 20.0904H180.131L178.256 25.8878H174.183L180.95 4.78864H188.58L195.519 25.8878ZM188.386 16.7283L184.765 5.84468L181.23 16.7283H188.386Z" fill="black"/>
</g>
</svg>
