<svg width="190" height="51" viewBox="0 0 190 51" fill="none" xmlns="http://www.w3.org/2000/svg">
<g opacity="0.5" clip-path="url(#clip0_87_256)">
<path d="M75.3327 36.9815C75.738 38.3191 76.1839 39.8595 76.5893 41.035C76.9541 42.2105 77.6027 44.1157 77.9675 45.2912L77.9269 45.3722C77.2784 45.3722 77.0352 45.4128 76.5082 45.4128L76.4271 45.3317C76.1029 44.1967 76.0218 43.8319 75.6975 42.7375H72.6574C72.2926 43.8725 72.2115 44.1967 71.9278 45.2912L71.8467 45.3722C71.3197 45.3722 71.1981 45.3723 70.5901 45.4128L70.5496 45.3317L70.6712 44.9669C71.1171 43.6292 71.6035 42.3321 72.0494 40.9945C72.779 38.8056 73.0627 38.0354 73.4276 36.8599L73.5086 36.7788C74.3599 36.7788 74.4815 36.7788 75.2516 36.7383L75.3327 36.8194V36.9815ZM72.9006 41.7646H75.3732L74.1977 37.6301L72.9006 41.7646Z" fill="black"/>
<path d="M146.553 43.7509C146.513 44.3184 146.472 44.4805 146.472 44.9669L146.391 45.048C146.067 45.2101 145.296 45.575 144.08 45.575C141.405 45.575 139.824 43.7914 139.824 41.0756C139.824 40.4675 139.865 39.0083 140.959 37.8328C142.013 36.6978 143.31 36.5762 144.202 36.5762C145.337 36.5762 146.026 36.8194 146.431 36.9815L146.472 37.0626C146.391 37.5085 146.391 37.6301 146.35 38.157L146.229 38.1976C145.986 38.0354 145.378 37.6301 144.283 37.6301C142.337 37.6301 141.243 38.9677 141.243 41.035C141.243 43.3455 142.5 44.44 144.202 44.44C145.337 44.44 146.067 43.9536 146.472 43.7103L146.553 43.7509Z" fill="black"/>
<path d="M153.039 43.305C152.917 43.9131 152.633 44.3995 152.228 44.8048C151.701 45.3318 150.971 45.5345 150.12 45.5345C149.026 45.5345 148.337 45.1291 147.931 44.7238C147.08 43.8725 147.08 42.6159 147.08 42.2106C147.08 41.7647 147.121 40.5487 147.931 39.738C148.256 39.3731 148.985 38.8867 150.201 38.8867C151.053 38.8867 151.863 39.1705 152.39 39.7785C152.958 40.4271 153.12 41.2783 153.12 42.1295C153.16 42.5349 153.12 42.9402 153.039 43.305ZM151.458 40.5081C151.215 40.1433 150.85 39.819 150.161 39.819C149.918 39.819 149.228 39.8596 148.823 40.5487C148.499 41.0351 148.458 41.7647 148.458 42.2917C148.458 42.7781 148.458 44.0347 149.431 44.5211C149.634 44.6427 149.918 44.6832 150.161 44.6832C150.607 44.6832 151.215 44.5211 151.579 43.8725C151.863 43.305 151.863 42.4943 151.863 42.2511C151.823 41.8458 151.782 41.0351 151.458 40.5081Z" fill="black"/>
<path d="M154.255 39.1705C154.863 39.0894 155.228 39.0083 155.552 38.9273L155.633 39.0083L155.593 39.6164C156.038 39.2921 156.728 38.8462 157.66 38.8462C158.714 38.8462 159.079 39.4542 159.241 39.738C159.524 39.5353 160.457 38.8462 161.592 38.8462C162.038 38.8462 162.565 39.0083 162.889 39.3326C163.456 39.9001 163.497 40.346 163.497 41.3999V42.4538C163.497 43.8725 163.497 44.1968 163.578 45.2913L163.497 45.3723C162.889 45.3723 162.808 45.3723 162.24 45.4129L162.159 45.3318C162.2 44.3184 162.2 43.1834 162.2 42.2106C162.2 41.4404 162.2 41.1567 162.119 40.8729C161.997 40.346 161.713 39.9001 161.024 39.9001C160.7 39.9001 160.132 39.9812 159.443 40.5081C159.484 40.7513 159.484 41.6431 159.484 42.0079V42.697C159.484 43.9536 159.484 44.359 159.565 45.2507L159.484 45.3318C158.835 45.3318 158.754 45.3318 158.187 45.3723L158.106 45.2913C158.146 44.1968 158.187 42.7781 158.187 42.0079C158.187 41.3999 158.187 41.0756 158.106 40.7513C158.025 40.346 157.781 39.8596 157.092 39.8596C156.646 39.8596 156.12 40.0217 155.552 40.4676V42.5754C155.552 43.9536 155.593 44.5211 155.633 45.2102L155.552 45.2913C154.903 45.2913 154.863 45.2913 154.295 45.3318L154.214 45.2507C154.255 44.7643 154.255 44.0752 154.255 42.7781C154.255 40.4676 154.174 39.6974 154.133 39.1299L154.255 39.1705Z" fill="black"/>
<path d="M166.253 39.5353C166.496 39.3326 167.104 38.8867 168.037 38.8867C169.577 38.8867 170.672 40.1433 170.672 41.8863C170.672 43.7915 169.415 45.4129 166.821 45.4129C166.577 45.4129 166.456 45.4129 166.253 45.3723C166.253 46.8316 166.294 47.1559 166.334 48.3314L166.253 48.4125C165.807 48.4125 165.402 48.453 164.956 48.453L164.875 48.3719C164.916 47.6423 164.916 46.8316 164.916 45.6155V43.4266C164.916 41.5215 164.916 40.6703 164.753 39.2515L164.834 39.1705C165.443 39.0894 165.564 39.0489 166.132 38.9273L166.213 39.0083L166.253 39.5353ZM166.78 44.4806C168.402 44.4806 169.334 43.4672 169.334 41.9268C169.334 40.6703 168.645 39.8596 167.672 39.8596C167.023 39.8596 166.537 40.1838 166.253 40.3865C166.253 41.0351 166.213 41.6431 166.213 42.2917C166.213 43.0213 166.213 43.7509 166.253 44.44C166.415 44.4806 166.577 44.4806 166.78 44.4806Z" fill="black"/>
<path d="M176.468 42.8592C176.468 44.3995 176.468 44.5211 176.549 45.3318L176.468 45.4129C175.9 45.4129 175.779 45.4534 175.211 45.4534L175.171 45.3724V44.9265C174.927 45.1291 174.4 45.5345 173.468 45.5345C172.252 45.5345 171.401 44.6833 171.401 43.4672C171.401 41.8053 172.779 41.2783 174.968 41.0351L175.171 40.9946C175.171 40.6703 175.171 40.4271 175.049 40.2244C174.927 40.0217 174.644 39.7785 174.036 39.7785C173.225 39.7785 172.698 40.0217 172.171 40.2244L172.09 40.1433C172.131 39.5758 172.131 39.4948 172.131 39.2516L172.212 39.1705C172.901 38.9273 173.63 38.7651 174.319 38.7651C175.211 38.7651 176.103 39.0894 176.387 40.0217C176.468 40.346 176.468 41.0351 176.468 41.5621V42.8592ZM175.09 41.9674C173.833 42.1701 172.698 42.3322 172.698 43.4267C172.698 43.5077 172.698 44.5616 173.874 44.5616C174.644 44.5616 175.09 44.1563 175.211 44.0347V41.9674H175.09Z" fill="black"/>
<path d="M183.318 45.3723C182.71 45.3723 182.67 45.3723 182.102 45.4129L182.021 45.3318V43.1429C182.021 41.2377 182.021 41.1161 181.94 40.8729C181.697 39.9406 181.008 39.9406 180.846 39.9406C180.116 39.9406 179.549 40.3865 179.224 40.6297C179.224 42.7781 179.224 43.8725 179.305 45.3318L179.224 45.4129C178.616 45.4129 178.535 45.4129 177.927 45.4534L177.846 45.3723C177.846 44.6832 177.887 44.0347 177.887 43.1024C177.887 41.1567 177.806 40.1028 177.725 39.2921L177.806 39.211C178.414 39.0894 178.535 39.0894 179.103 38.9678L179.184 39.0488V39.6974C179.508 39.4947 180.278 38.9272 181.332 38.9272C181.657 38.9272 182.021 38.9678 182.346 39.1705C182.67 39.3731 182.913 39.6569 183.075 39.9812C183.237 40.346 183.237 40.7108 183.278 41.481V42.8997C183.318 44.3184 183.318 44.8859 183.359 45.3723H183.318Z" fill="black"/>
<path d="M189.561 39.0894C188.872 40.8324 187.696 44.0752 187.372 44.9264C187.007 46.0614 186.642 47.1559 186.358 48.2908L186.237 48.3719C185.629 48.3719 185.507 48.3719 184.94 48.4124L184.899 48.3314L184.94 48.2503C185.142 47.8044 185.345 47.318 185.548 46.8316C185.71 46.4262 185.913 46.0209 186.075 45.6155C186.075 45.575 186.115 45.5345 186.115 45.5345C186.115 45.3723 184.291 40.427 183.764 39.211L183.805 39.0894C184.413 39.0488 184.534 39.0488 185.183 38.9678L185.264 39.0488C185.588 40.1433 185.75 40.6702 186.034 41.4809L186.804 43.832L187.493 41.6836C187.737 40.8324 188.061 39.819 188.264 39.1299L188.345 39.0488H189.52L189.561 39.0894Z" fill="black"/>
<path d="M112.584 34.9143C112.584 35.5628 112.017 36.0898 111.409 36.0898C110.76 36.0898 110.233 35.5628 110.233 34.9143C110.233 34.3063 110.76 33.7388 111.409 33.7388C112.017 33.7388 112.584 34.3063 112.584 34.9143Z" fill="black"/>
<path d="M112.422 36.6572H110.314V45.2507H112.422V36.6572Z" fill="black"/>
<path d="M131.15 40.954C131.15 43.7104 129.082 45.4534 126.448 45.4534C123.813 45.4534 121.786 43.7104 121.786 40.954C121.786 38.1976 123.853 36.4546 126.448 36.4546C129.082 36.4546 131.15 38.1976 131.15 40.954ZM124.016 40.954C124.016 42.7375 124.988 44.0752 126.448 44.0752C127.785 44.0752 128.839 42.7375 128.839 40.954C128.839 39.1704 127.785 37.8328 126.448 37.8328C124.867 37.8733 124.016 39.1704 124.016 40.954Z" fill="black"/>
<path d="M120.894 48.6962C121.502 48.1693 121.908 47.4802 122.029 46.6695C122.232 44.7643 120.894 43.6699 118.989 43.6699H116.516C115.949 43.6699 115.057 43.5888 115.057 42.8186C115.057 42.1296 116.03 41.9674 116.557 41.9674H117.408C119.151 41.9674 120.813 41.0351 120.813 39.211C120.813 38.5625 120.489 38.1166 120.286 37.8734C120.813 37.7923 121.34 37.6707 121.908 37.5086L122.07 36.1709C120.935 36.5357 119.84 36.6573 118.705 36.6573C118.381 36.5762 117.935 36.4546 117.043 36.4546C114.855 36.4546 113.801 37.9139 113.801 39.211C113.801 40.3055 114.409 40.873 114.855 41.1567C114.125 41.3999 113.314 42.2917 113.314 43.3456C113.314 44.5211 114.003 45.0075 114.409 45.2102C113.841 45.494 112.828 46.2236 112.828 47.5207C112.828 47.7639 112.868 48.0071 112.949 48.2098C102.816 47.0748 92.5602 44.6022 82.7507 47.4396V48.0477C98.4378 43.5888 115.219 53.8037 130.947 49.3448V47.4396C127.623 48.372 124.259 48.6962 120.894 48.6962ZM117.246 37.7112C118.341 37.7112 118.827 38.5219 118.827 39.2516C118.827 40.0623 118.3 40.7514 117.246 40.7514C116.192 40.7514 115.665 40.1028 115.665 39.2516C115.706 38.5219 116.273 37.7112 117.246 37.7112ZM115.908 45.4534H118.705C119.557 45.4534 120.286 45.8993 120.124 46.8722C120.002 47.7639 118.705 48.6152 117.327 48.6152C116.111 48.6152 114.611 48.2503 114.571 47.2775C114.571 46.4263 115.463 45.7372 115.908 45.4534Z" fill="black"/>
<path d="M95.195 44.0346C93.371 44.0346 92.4792 42.9402 92.4792 41.1972H98.3568C98.3568 37.8733 96.5327 36.4951 94.3843 36.4951C92.0738 36.4951 90.2092 38.4408 90.2092 41.0756C90.2092 43.7104 91.9117 45.4939 94.5465 45.4939H95.195C96.0057 45.4534 96.8164 45.3318 97.6677 44.9669C97.7082 44.4805 97.7488 44.0346 97.8298 43.5482C97.3839 43.7509 96.8975 43.8725 96.4516 43.9536C96.1274 43.9941 95.722 44.0346 95.195 44.0346ZM94.3438 37.8733C95.3977 37.8733 96.0463 38.6029 96.1274 39.9001H92.5197C92.6413 38.7651 93.2088 37.8733 94.3438 37.8733Z" fill="black"/>
<path d="M82.8318 45.2505V32.1982H86.6421C89.6822 32.1982 91.182 33.9413 91.182 35.7653C91.182 37.8732 89.3579 39.5756 86.561 39.5756H85.0612V45.2505H82.8318ZM86.1557 33.7386H85.0207V38.3596C85.1828 38.2785 85.3855 38.1569 85.6692 38.1164C85.9125 38.0758 86.1557 38.0758 86.1557 38.0758C87.6555 38.0758 88.7904 37.2651 88.7904 35.8059C88.7904 34.5087 87.7365 33.7386 86.1557 33.7386Z" fill="black"/>
<path d="M104.234 36.5762C104.032 36.4951 103.748 36.4546 103.464 36.4546C102.329 36.4546 101.478 37.2653 101.154 37.8328L101.032 36.6573H99.0864V45.2507H101.194V39.3731C101.6 38.5219 102.491 37.7517 103.626 38.3192L104.234 36.5762Z" fill="black"/>
<path d="M109.788 36.5762C109.585 36.4951 109.301 36.4546 109.017 36.4546C107.882 36.4546 107.031 37.2653 106.707 37.8328L106.626 36.6573H104.68V45.2507H106.788V39.3731C107.193 38.5219 108.085 37.7517 109.22 38.3192L109.788 36.5762Z" fill="black"/>
<path d="M136.541 36.3735C136.541 37.7517 135.365 38.8461 133.906 38.8461C132.447 38.8461 131.271 37.7517 131.271 36.3735C131.271 34.9953 132.447 33.9414 133.946 33.9414C135.365 33.9414 136.541 35.0359 136.541 36.3735ZM131.92 36.3735C131.92 37.468 132.771 38.3192 133.946 38.3192C135.041 38.3192 135.892 37.468 135.892 36.3735C135.892 35.2791 135.041 34.3873 133.906 34.3873C132.771 34.4278 131.92 35.3196 131.92 36.3735ZM133.5 37.6706H132.892V35.2385C133.136 35.198 133.46 35.1575 133.865 35.1575C134.352 35.1575 134.554 35.2385 134.757 35.3601C134.919 35.4817 135.041 35.6439 135.041 35.8871C135.041 36.1708 134.798 36.3735 134.514 36.4546V36.4951C134.757 36.5762 134.879 36.7789 134.96 37.1031C135.041 37.468 135.081 37.6301 135.162 37.7112H134.554C134.473 37.6301 134.433 37.4274 134.352 37.1031C134.311 36.8599 134.149 36.7383 133.825 36.7383H133.541V37.6706H133.5ZM133.5 36.2924H133.784C134.108 36.2924 134.392 36.1708 134.392 35.9276C134.392 35.6844 134.23 35.5628 133.825 35.5628C133.663 35.5628 133.541 35.5628 133.5 35.6033V36.2924Z" fill="black"/>
<path d="M96.5327 10.634C96.5327 11.7285 96.33 12.7013 95.9652 13.5526C95.6003 14.4443 95.0734 15.174 94.3843 15.782C93.6952 16.39 92.844 16.8764 91.8711 17.2007C90.8577 17.525 89.6822 17.6871 88.304 17.6871H85.7503V25.5104C85.7503 25.5915 85.7098 25.6725 85.6693 25.7536C85.6287 25.8347 85.5477 25.8752 85.426 25.9157C85.3044 25.9563 85.1828 25.9968 84.9802 26.0373C84.7775 26.0779 84.5343 26.0779 84.2505 26.0779C83.9668 26.0779 83.7236 26.0779 83.5209 26.0373C83.3182 25.9968 83.1561 25.9968 83.075 25.9157C82.9534 25.8752 82.8723 25.8347 82.8318 25.7536C82.7913 25.6725 82.7507 25.5915 82.7507 25.5104V5.48607C82.7507 5.04019 82.8723 4.71591 83.1155 4.55376C83.3588 4.35109 83.6425 4.27002 83.9262 4.27002H88.7094C89.1958 4.27002 89.6417 4.27002 90.0876 4.31055C90.5335 4.35109 91.0604 4.43216 91.6684 4.55376C92.2765 4.67537 92.8845 4.91858 93.5331 5.2834C94.1411 5.64821 94.7086 6.05356 95.1545 6.58052C95.6003 7.10747 95.9246 7.67496 96.1678 8.36406C96.4111 9.05316 96.5327 9.82332 96.5327 10.634ZM93.4115 10.8772C93.4115 9.98546 93.2493 9.25583 92.8845 8.64781C92.5602 8.03978 92.1143 7.63443 91.6279 7.31015C91.1415 7.0264 90.6145 6.82373 90.0876 6.74266C89.5606 6.66159 89.0337 6.62105 88.5067 6.62105H85.7503V15.3361H88.4256C89.3174 15.3361 90.0876 15.2145 90.6551 15.0118C91.2631 14.7686 91.7495 14.4849 92.1549 14.0795C92.5602 13.6742 92.844 13.1877 93.0872 12.6608C93.2898 12.1338 93.4115 11.5258 93.4115 10.8772Z" fill="black"/>
<path d="M114.165 25.5508C114.165 25.6318 114.125 25.7129 114.084 25.794C114.044 25.875 113.963 25.9156 113.841 25.9561C113.72 25.9967 113.598 26.0372 113.395 26.0372C113.193 26.0777 112.99 26.0777 112.706 26.0777C112.422 26.0777 112.179 26.0777 111.977 26.0372C111.774 25.9967 111.652 25.9967 111.531 25.9561C111.409 25.9156 111.368 25.8345 111.287 25.794C111.247 25.7129 111.206 25.6724 111.206 25.5508V16.7141C111.206 15.8629 111.125 15.1738 111.004 14.6468C110.882 14.1199 110.679 13.674 110.396 13.2686C110.112 12.9038 109.788 12.5795 109.382 12.3769C108.977 12.1742 108.491 12.0931 107.923 12.0931C107.193 12.0931 106.504 12.3363 105.775 12.8228C105.045 13.3092 104.315 14.0388 103.505 14.9711V25.5102C103.505 25.5913 103.464 25.6724 103.424 25.7534C103.383 25.8345 103.302 25.875 103.18 25.9156C103.099 25.9561 102.937 25.9967 102.735 25.9967C102.572 26.0372 102.329 26.0372 102.045 26.0372C101.762 26.0372 101.518 26.0372 101.356 25.9967C101.154 25.9561 101.032 25.9561 100.91 25.9156C100.789 25.875 100.748 25.794 100.708 25.7534C100.667 25.6724 100.627 25.6318 100.627 25.5102V3.09434C100.627 3.01327 100.667 2.9322 100.708 2.85113C100.748 2.77006 100.829 2.72952 100.91 2.68899C101.032 2.64845 101.154 2.60792 101.356 2.60792C101.559 2.56738 101.762 2.56738 102.045 2.56738C102.329 2.56738 102.572 2.56738 102.735 2.60792C102.937 2.64845 103.059 2.64845 103.18 2.68899C103.302 2.72952 103.343 2.77006 103.424 2.85113C103.464 2.9322 103.505 3.01327 103.505 3.09434V12.1337C104.315 11.2824 105.167 10.6744 105.977 10.269C106.788 9.86369 107.639 9.66102 108.491 9.66102C109.544 9.66102 110.396 9.82316 111.125 10.188C111.814 10.5123 112.422 10.9987 112.828 11.5662C113.274 12.1337 113.598 12.8228 113.76 13.5524C113.963 14.3226 114.044 15.2549 114.044 16.3493V25.5508H114.165Z" fill="black"/>
<path d="M131.068 25.5914C131.068 25.713 131.028 25.8346 130.947 25.8752C130.866 25.9562 130.744 25.9968 130.582 26.0373C130.42 26.0778 130.177 26.0778 129.852 26.0778C129.569 26.0778 129.325 26.0778 129.123 26.0373C128.92 25.9968 128.798 25.9562 128.717 25.8752C128.636 25.7941 128.596 25.713 128.596 25.5914V24.0511C127.907 24.7807 127.177 25.3077 126.326 25.713C125.475 26.1184 124.623 26.2805 123.691 26.2805C122.88 26.2805 122.151 26.1589 121.462 25.9562C120.813 25.7536 120.245 25.4293 119.759 25.0645C119.273 24.6591 118.948 24.1727 118.665 23.6052C118.421 23.0377 118.3 22.3892 118.3 21.6595C118.3 20.8083 118.462 20.0787 118.827 19.4301C119.192 18.8221 119.678 18.2951 120.367 17.8898C121.056 17.4844 121.867 17.1601 122.84 16.9575C123.813 16.7548 124.907 16.6332 126.083 16.6332H128.231V15.4577C128.231 14.8902 128.15 14.3632 128.028 13.9173C127.907 13.4714 127.704 13.1066 127.42 12.7823C127.136 12.4986 126.772 12.2554 126.326 12.0932C125.88 11.9311 125.312 11.85 124.664 11.85C123.975 11.85 123.326 11.9311 122.759 12.0932C122.191 12.2554 121.705 12.4175 121.299 12.6202C120.894 12.8229 120.529 12.985 120.245 13.1472C119.962 13.3093 119.759 13.3904 119.597 13.3904C119.516 13.3904 119.435 13.3498 119.354 13.3093C119.273 13.2688 119.232 13.1877 119.192 13.1066C119.151 13.0256 119.111 12.9039 119.07 12.7823C119.029 12.6607 119.029 12.4986 119.029 12.3365C119.029 12.0527 119.029 11.85 119.07 11.6879C119.111 11.5258 119.192 11.3636 119.354 11.242C119.516 11.0799 119.759 10.9177 120.164 10.7151C120.529 10.5124 120.975 10.3502 121.502 10.1881C121.988 10.026 122.556 9.90435 123.123 9.78275C123.691 9.66114 124.299 9.62061 124.907 9.62061C126.042 9.62061 126.974 9.74221 127.744 9.98542C128.515 10.2286 129.163 10.5934 129.65 11.0799C130.136 11.5663 130.501 12.1338 130.704 12.8634C130.906 13.5525 131.028 14.4037 131.028 15.336V25.5914H131.068ZM128.231 18.7005H125.799C125.029 18.7005 124.34 18.7815 123.772 18.9031C123.205 19.0247 122.718 19.2274 122.353 19.4706C121.988 19.7138 121.705 20.0381 121.502 20.3624C121.34 20.7272 121.259 21.1326 121.259 21.5784C121.259 22.3486 121.502 22.9972 122.029 23.4431C122.556 23.8889 123.245 24.1322 124.177 24.1322C124.907 24.1322 125.637 23.9295 126.245 23.5647C126.893 23.1999 127.542 22.6324 128.271 21.8622V18.7005H128.231Z" fill="black"/>
<path d="M145.418 11.4447V12.0527C145.418 12.2148 145.377 12.3364 145.337 12.458C145.296 12.5391 145.256 12.6202 145.215 12.6607C145.175 12.7013 145.093 12.7418 145.012 12.7418C144.931 12.7418 144.81 12.7013 144.688 12.6607C144.566 12.6202 144.404 12.5391 144.242 12.4986C144.08 12.458 143.877 12.4175 143.675 12.377C143.472 12.3364 143.229 12.2959 142.986 12.2959C142.702 12.2959 142.418 12.3364 142.134 12.458C141.851 12.5796 141.567 12.7418 141.243 13.0255C140.918 13.2687 140.635 13.6336 140.27 14.0389C139.946 14.4443 139.581 14.9712 139.175 15.5792V25.5103C139.175 25.5914 139.135 25.6725 139.094 25.7535C139.054 25.8346 138.973 25.8752 138.851 25.9157C138.729 25.9562 138.608 25.9968 138.405 25.9968C138.202 26.0373 138 26.0373 137.716 26.0373C137.432 26.0373 137.189 26.0373 137.027 25.9968C136.824 25.9562 136.703 25.9562 136.581 25.9157C136.459 25.8752 136.419 25.7941 136.378 25.7535C136.338 25.6725 136.338 25.6319 136.338 25.5103V10.4313C136.338 10.3502 136.338 10.2692 136.378 10.1881C136.419 10.107 136.5 10.0665 136.581 10.0259C136.662 9.98541 136.824 9.94487 136.986 9.90434C137.149 9.90434 137.351 9.8638 137.635 9.8638C137.878 9.8638 138.081 9.8638 138.284 9.90434C138.446 9.90434 138.567 9.94487 138.689 10.0259C138.77 10.0665 138.851 10.1475 138.892 10.1881C138.932 10.2692 138.973 10.3097 138.973 10.4313V12.6202C139.378 12.0122 139.783 11.5257 140.189 11.1609C140.554 10.7961 140.918 10.4718 141.243 10.2692C141.567 10.0665 141.891 9.90434 142.256 9.82327C142.58 9.74219 142.905 9.70166 143.229 9.70166C143.391 9.70166 143.553 9.70166 143.756 9.74219C143.958 9.74219 144.161 9.78273 144.364 9.82327C144.567 9.8638 144.769 9.90434 144.931 9.98541C145.093 10.0259 145.215 10.107 145.296 10.1475C145.377 10.1881 145.418 10.2692 145.418 10.3097C145.458 10.3502 145.458 10.4313 145.458 10.5124C145.458 10.5934 145.499 10.715 145.499 10.8366C145.418 10.9988 145.418 11.2015 145.418 11.4447Z" fill="black"/>
<path d="M171.725 25.5509C171.725 25.632 171.685 25.713 171.644 25.7941C171.604 25.8752 171.522 25.9157 171.401 25.9562C171.279 25.9968 171.158 26.0373 170.955 26.0373C170.752 26.0778 170.55 26.0778 170.266 26.0778C169.982 26.0778 169.739 26.0778 169.577 26.0373C169.374 25.9968 169.252 25.9968 169.131 25.9562C169.009 25.9157 168.928 25.8346 168.888 25.7941C168.847 25.713 168.807 25.6725 168.807 25.5509V16.39C168.807 15.7414 168.726 15.1739 168.644 14.647C168.523 14.12 168.361 13.6741 168.077 13.2688C167.834 12.9039 167.509 12.5797 167.104 12.377C166.699 12.1743 166.253 12.0932 165.726 12.0932C165.077 12.0932 164.388 12.3365 163.74 12.8229C163.091 13.3093 162.362 14.0389 161.551 14.9712V25.5104C161.551 25.5914 161.51 25.6725 161.47 25.7536C161.429 25.8346 161.348 25.8752 161.227 25.9157C161.105 25.9562 160.983 25.9968 160.781 25.9968C160.578 26.0373 160.375 26.0373 160.092 26.0373C159.808 26.0373 159.605 26.0373 159.402 25.9968C159.2 25.9562 159.078 25.9562 158.957 25.9157C158.835 25.8752 158.754 25.7941 158.754 25.7536C158.713 25.6725 158.673 25.632 158.673 25.5104V16.3494C158.673 15.7009 158.592 15.1334 158.47 14.6064C158.349 14.0795 158.146 13.6336 157.903 13.2282C157.659 12.8634 157.335 12.5391 156.93 12.3365C156.524 12.1338 156.079 12.0527 155.552 12.0527C154.903 12.0527 154.214 12.2959 153.565 12.7823C152.917 13.2688 152.187 13.9984 151.377 14.9307V25.4698C151.377 25.5509 151.336 25.632 151.295 25.713C151.255 25.7941 151.174 25.8346 151.052 25.8752C150.931 25.9157 150.809 25.9562 150.606 25.9562C150.444 25.9968 150.201 25.9968 149.917 25.9968C149.634 25.9968 149.39 25.9968 149.228 25.9562C149.025 25.9157 148.904 25.9157 148.782 25.8752C148.661 25.8346 148.58 25.7536 148.539 25.713C148.499 25.632 148.499 25.5914 148.499 25.4698V10.3908C148.499 10.3097 148.499 10.2286 148.539 10.1476C148.58 10.0665 148.661 10.026 148.742 9.98542C148.863 9.94489 148.985 9.90435 149.147 9.86382C149.309 9.86382 149.512 9.82328 149.796 9.82328C150.039 9.82328 150.242 9.82328 150.444 9.86382C150.606 9.86382 150.728 9.90435 150.85 9.98542C150.931 10.026 151.012 10.107 151.052 10.1476C151.093 10.2286 151.133 10.2692 151.133 10.3908V12.377C152.025 11.4447 152.876 10.7151 153.687 10.3097C154.498 9.86382 155.349 9.66114 156.2 9.66114C156.849 9.66114 157.416 9.74221 157.943 9.86382C158.47 10.026 158.916 10.2286 159.321 10.4718C159.727 10.7556 160.051 11.0393 160.335 11.4041C160.619 11.769 160.821 12.1743 161.024 12.6202C161.551 12.0527 162.037 11.6068 162.483 11.242C162.929 10.8772 163.415 10.5529 163.821 10.3097C164.267 10.0665 164.672 9.90435 165.077 9.78275C165.483 9.66114 165.888 9.62061 166.293 9.62061C167.307 9.62061 168.117 9.78275 168.807 10.1476C169.496 10.4718 170.023 10.9583 170.469 11.5258C170.874 12.0932 171.198 12.7823 171.36 13.512C171.522 14.2821 171.644 15.0928 171.644 15.9441V25.5509H171.725Z" fill="black"/>
<path d="M188.669 25.5914C188.669 25.713 188.628 25.8346 188.547 25.8752C188.466 25.9562 188.345 25.9968 188.183 26.0373C188.02 26.0778 187.777 26.0778 187.493 26.0778C187.169 26.0778 186.966 26.0778 186.764 26.0373C186.561 25.9968 186.44 25.9562 186.358 25.8752C186.277 25.7941 186.237 25.713 186.237 25.5914V24.0511C185.548 24.7807 184.818 25.3077 183.967 25.713C183.116 26.1184 182.264 26.2805 181.332 26.2805C180.521 26.2805 179.792 26.1589 179.103 25.9562C178.454 25.7536 177.887 25.4293 177.4 25.0645C176.914 24.6591 176.589 24.1727 176.306 23.6052C176.063 23.0377 175.9 22.3892 175.9 21.6595C175.9 20.8083 176.063 20.0787 176.427 19.4301C176.792 18.8221 177.279 18.2951 177.968 17.8898C178.616 17.4844 179.467 17.1601 180.44 16.9575C181.413 16.7548 182.508 16.6332 183.724 16.6332H185.872V15.4577C185.872 14.8902 185.831 14.3632 185.669 13.9173C185.548 13.4714 185.345 13.1066 185.061 12.7823C184.778 12.4986 184.413 12.2554 183.967 12.0932C183.521 11.9311 182.953 11.85 182.305 11.85C181.616 11.85 180.967 11.9311 180.4 12.0932C179.832 12.2554 179.346 12.4175 178.941 12.6202C178.535 12.8229 178.17 12.985 177.887 13.1472C177.603 13.3093 177.4 13.3904 177.238 13.3904C177.157 13.3904 177.076 13.3498 176.995 13.3093C176.914 13.2688 176.873 13.1877 176.833 13.1066C176.792 13.0256 176.752 12.9039 176.711 12.7823C176.671 12.6607 176.671 12.4986 176.671 12.3365C176.671 12.0527 176.671 11.85 176.711 11.6879C176.752 11.5258 176.833 11.3636 176.995 11.242C177.157 11.0799 177.441 10.9177 177.806 10.7151C178.17 10.5124 178.616 10.3502 179.103 10.1881C179.589 10.026 180.157 9.90435 180.724 9.78275C181.332 9.66114 181.9 9.62061 182.508 9.62061C183.643 9.62061 184.575 9.74221 185.345 9.98542C186.115 10.2286 186.764 10.5934 187.25 11.0799C187.737 11.5663 188.101 12.1338 188.304 12.8634C188.507 13.5525 188.628 14.4037 188.628 15.336V25.5914H188.669ZM185.831 18.7005H183.399C182.629 18.7005 181.94 18.7815 181.373 18.9031C180.805 19.0247 180.319 19.2274 179.954 19.4706C179.589 19.7138 179.305 20.0381 179.103 20.3624C178.941 20.7272 178.819 21.1326 178.819 21.5784C178.819 22.3486 179.062 22.9972 179.589 23.4431C180.116 23.8889 180.805 24.1322 181.737 24.1322C182.467 24.1322 183.197 23.9295 183.805 23.5647C184.453 23.1999 185.102 22.6324 185.831 21.8622V18.7005Z" fill="black"/>
<path d="M0.869873 0.5H6.17997V10.5527H16.5975V0.5H21.9076V26.0371H16.5975V14.8494H6.17997V26.0776H0.869873V0.5Z" fill="black"/>
<path d="M27.4204 0.5H38.6081C42.54 0.5 43.8371 0.905351 44.6478 1.14856C47.6879 2.24301 48.9445 5.20207 48.9445 7.67471C48.9445 10.4716 47.5258 12.9037 44.9316 13.9576C43.9993 14.363 43.0264 14.6467 41.9725 14.7278V14.8089C44.1614 16.0249 45.2153 16.9572 47.8501 21.0513L51.0524 26.0371H44.6883L40.878 20.4838C37.6758 15.8628 37.3515 15.3764 33.7844 15.3764H32.7305V26.0776H27.4204V0.5ZM32.7305 11.3229H36.6624C38.2838 11.3229 40.5132 11.3229 41.4455 10.9986C43.2696 10.3906 43.4723 8.76915 43.4723 7.99899C43.4723 6.94508 43.1075 5.97223 42.0941 5.40474C41.0807 4.83725 40.4322 4.83725 36.8651 4.83725H32.69V11.3229H32.7305Z" fill="black"/>
<path d="M64.2666 6.45865L56.9298 26.0776H51.2549L61.5103 0.540527H67.1446L77.6837 26.0776H71.8872L64.2666 6.45865Z" fill="black"/>
<path d="M68.1176 18.2951C68.1176 16.39 66.5367 14.8091 64.5505 14.8091C62.5643 14.8091 60.9834 16.3494 60.9834 18.2951C60.9834 20.2408 62.5643 21.7406 64.5505 21.7406C66.5367 21.7406 68.1176 20.2002 68.1176 18.2951Z" fill="black"/>
</g>
<defs>
<clipPath id="clip0_87_256">
<rect width="188.691" height="50" fill="white" transform="translate(0.869873 0.5)"/>
</clipPath>
</defs>
</svg>
