<svg width="201" height="51" viewBox="0 0 201 51" fill="none" xmlns="http://www.w3.org/2000/svg">
<g opacity="0.5" clip-path="url(#clip0_87_145)">
<path d="M91.8293 33.5922C91.1964 36.0787 89.6141 36.9376 87.851 36.9376C85.2289 36.9376 83.4658 35.1293 83.4658 31.2866V24.0986H80.7533C81.2506 22.4259 82.2 21.2505 83.4658 21.0244V19.9394C83.4658 18.4476 84.822 17.0461 87.2633 16.0968V20.934H91.332C91.1059 23.0136 89.6593 24.0534 88.1674 24.0534H87.218V30.925C87.218 33.095 88.4839 33.547 89.5689 33.547C89.9305 33.5922 91.8293 33.5922 91.8293 33.5922ZM78.719 33.5922C77.634 33.5922 76.3681 33.1402 76.3681 30.9702V24.0986H77.3175C78.8094 24.0986 80.2108 23.0588 80.4821 20.9792H76.4133V16.0968C73.9721 17.0461 72.6159 18.4476 72.6159 19.9394V20.9792C71.3501 21.2053 70.4007 22.3807 69.9034 24.0534H72.6159V31.2414C72.6159 35.0841 74.379 36.8924 77.0011 36.8924C78.7642 36.8924 80.3464 35.9883 80.9794 33.547C80.9341 33.5922 79.0806 33.5922 78.719 33.5922ZM172.978 22.5615C173.52 22.3355 174.786 21.3861 174.967 19.849C174.967 19.849 173.565 19.8942 171.847 19.8038C170.175 19.7134 168.095 19.623 167.146 19.623C165.021 19.623 163.484 19.8942 162.399 20.4819C160.907 21.2957 160.138 23.33 160.138 25.5904C160.138 28.981 160.907 30.3373 162.263 31.151C162.263 31.151 160.636 32.01 160.636 33.9991C160.636 35.2649 161.404 36.0787 161.404 36.0787C161.404 36.0787 159.641 37.3897 159.641 39.6953C159.641 42.9051 162.128 44.0805 167.055 44.0805C171.893 44.0805 174.967 43.4476 174.967 38.7459C174.967 34.5868 172.164 33.8635 168.095 33.7731C165.428 33.7279 164.117 33.8183 164.117 32.6429C164.117 32.1004 164.569 31.7387 164.84 31.6935C164.84 31.6935 165.744 31.8743 166.829 31.8743C171.35 31.8743 173.384 30.9702 173.384 25.6356C173.339 23.5561 172.978 22.5615 172.978 22.5615ZM121.893 34.4964L117.553 27.896L122.345 22.245C123.43 20.934 123.023 20.1203 122.48 19.849H117.372V20.2559C118.547 20.6176 118.321 21.4765 117.553 22.4259L113.122 27.8508V15.1022C113.122 13.7912 112.625 13.2487 111.269 13.2487H107.788V13.6555C108.873 13.972 109.325 14.6953 109.325 15.8707V34.9033C109.325 36.2143 109.822 36.7568 111.178 36.7568H114.569V36.2595C113.484 35.7622 113.077 35.0841 113.077 34.1347V27.9412L117.417 34.9937C118.14 36.2143 118.592 36.7568 119.994 36.7568H123.882V36.2595C122.842 35.8074 122.571 35.4458 121.893 34.4964ZM141.151 21.7025C141.151 20.3915 140.654 19.849 139.298 19.849H135.817V20.2559C136.902 20.5723 137.354 21.2957 137.354 22.4711V34.9033C137.354 36.2143 137.851 36.7568 139.207 36.7568H142.598V36.2595C141.513 35.7622 141.106 35.0841 141.106 34.1347V21.7025H141.151ZM157.878 34.1347V24.3246C157.878 21.5217 155.618 19.7586 152.363 19.7586C150.374 19.7586 149.017 20.6628 148.113 21.6573C148.113 20.3915 147.616 19.8038 146.26 19.8038H142.779V20.2107C143.864 20.5271 144.316 21.2505 144.316 22.4259V34.8581C144.316 36.1691 144.813 36.7116 146.169 36.7116H149.56V36.2143C148.475 35.717 148.068 35.0389 148.068 34.0895V26.4946C148.204 25.274 149.198 23.3752 151.368 23.3752C153.131 23.3752 154.081 24.415 154.081 25.8165V34.9033C154.081 36.2143 154.578 36.7568 155.934 36.7568H159.325V36.2595C158.285 35.8074 157.878 35.0841 157.878 34.1347ZM133.24 19.849C131.296 19.849 130.12 20.6176 129.307 21.9286V21.7025C129.307 20.3915 128.809 19.849 127.453 19.849H123.972V20.2559C125.057 20.5723 125.509 21.2957 125.509 22.4711V34.9033C125.509 36.2143 126.006 36.7568 127.363 36.7568H130.753V36.2595C129.668 35.7622 129.261 35.0841 129.261 34.1347V24.415C129.307 23.8273 130.075 23.7821 131.07 23.7821C133.24 23.7821 134.144 23.1492 134.777 19.849H133.24ZM198.927 19.849C196.983 19.849 195.808 20.6176 194.994 21.9286V21.7025C194.994 20.3915 194.497 19.849 193.14 19.849H189.659V20.2559C190.744 20.5723 191.196 21.2957 191.196 22.4711V34.9033C191.196 36.2143 191.694 36.7568 193.05 36.7568H196.44V36.2595C195.355 35.7622 194.949 35.0841 194.949 34.1347V24.415C194.994 23.8273 195.762 23.7821 196.757 23.7821C198.927 23.7821 199.831 23.1492 200.464 19.849H198.927ZM107.471 36.2595V36.7568H104.081C103.041 36.7568 102.544 36.0787 102.363 35.2197C101.323 36.1691 99.7859 36.802 97.7063 36.802C94.2705 36.802 92.5978 34.5416 92.5978 31.6935C92.5978 27.896 94.7226 25.9973 100.464 25.9973C101.278 25.9973 101.956 26.0425 102.227 26.0877C102.227 24.189 102.137 22.7423 97.6611 22.7423C95.5815 22.7423 93.4567 23.0588 93.4567 23.0588C94.0444 20.708 95.3103 19.5326 99.7859 19.5326C104.261 19.5326 106.025 21.0696 106.025 23.7369V34.1799C105.979 35.0841 106.386 35.8074 107.471 36.2595ZM102.227 30.0208V28.755C102.001 28.7098 101.413 28.6646 99.8311 28.6646C97.6611 28.6646 96.6213 29.84 96.6213 31.151C96.6213 32.462 97.209 33.4566 99.2434 33.4114C101.233 33.321 102.137 32.5072 102.227 30.0208ZM138.891 13.2034C137.67 13.2034 136.676 14.198 136.676 15.4186C136.676 16.6393 137.67 17.6338 138.891 17.6338C140.111 17.6338 141.106 16.6393 141.106 15.4186C141.106 14.198 140.111 13.2034 138.891 13.2034ZM164.072 25.8165C164.072 23.3752 165.111 22.9684 166.784 22.9684C168.412 22.9684 169.497 23.33 169.497 25.8165C169.497 28.2577 168.412 28.755 166.784 28.755C165.157 28.755 164.072 28.2577 164.072 25.8165ZM167.236 37.2541C169.135 37.2541 170.22 37.2541 170.717 37.8418C170.898 38.0678 171.124 38.4295 171.124 38.9268C171.124 39.4693 170.898 39.9214 170.672 40.1474C170.129 40.7351 168.954 40.6899 167.236 40.6899C163.529 40.6899 163.213 39.6501 163.213 38.8364C163.213 37.5705 164.252 37.028 164.252 37.028C164.252 37.028 164.433 37.2541 167.236 37.2541ZM183.827 33.6827C186.676 33.6827 188.665 33.4114 188.665 33.4114C187.941 36.9828 184.732 37.028 182.2 37.028C176.323 37.028 175.509 34.0443 175.509 28.3481C175.509 24.7315 176.097 22.1546 177.408 21.0244C178.448 20.1203 180.075 19.7586 182.471 19.7586C183.963 19.7586 186.178 19.7586 187.58 21.0696C188.393 21.8382 188.891 23.0136 188.891 24.9123C188.891 28.2577 187.173 30.066 183.33 30.066C181.477 30.066 180.03 29.9756 179.442 29.9304C179.578 32.6429 180.301 33.6827 183.827 33.6827ZM179.352 27.1727C179.759 27.2631 180.482 27.3535 181.431 27.3535C182.923 27.3535 184.958 27.1727 184.958 25.0479C184.958 23.6013 184.144 23.0588 182.29 23.0588C179.94 23.0588 179.352 24.0986 179.352 27.1727ZM57.7425 10.8074C56.8383 10.8074 53.6285 10.9431 51.6394 12.028C49.0173 13.4747 46.3501 18.1763 46.3501 25.2288C46.3501 28.0317 47.9775 34.406 49.4242 35.9883C50.464 37.1185 56.7931 39.5145 58.5562 39.5145C59.2795 39.5145 60.2289 38.7912 63.4839 36.3047C65.3374 34.8581 67.0553 33.3662 67.3266 32.9593C68.2307 31.6031 68.8636 28.2577 68.8636 22.9232C68.8636 16.594 65.3374 10.6266 63.1674 10.6266C62.3989 10.6266 60.8618 11.4855 59.4604 12.1185C57.652 12.9322 55.8437 13.6103 55.256 13.7459C54.8039 13.8816 54.6231 13.8364 54.6231 13.8364C55.03 13.2487 55.5273 12.661 56.2506 12.2993C56.8835 11.9376 57.2904 11.802 58.0137 11.6664C58.737 11.4855 59.1439 11.3951 59.1439 11.1691C59.0987 10.9431 58.4658 10.8074 57.7425 10.8074ZM60.9974 15.1926C62.6701 16.9557 63.8455 20.0299 63.8455 25.1384C63.8455 30.066 63.2126 31.7387 61.9468 33.7279C60.681 35.6718 59.3699 35.4458 56.6123 34.4964C53.2669 33.321 52.634 31.9195 52.0915 28.981C51.2325 24.5054 51.8202 20.5271 52.9956 17.7695C53.7642 16.0063 55.0752 15.5543 56.6123 15.0118C59.3247 13.9268 60.0933 14.2432 60.9974 15.1926ZM23.0228 8.72786C23.6105 8.50182 24.0173 8.41141 24.0173 8.41141C24.0173 8.41141 23.9269 8.14016 23.4748 8.04974C23.0228 7.95933 22.7967 7.95933 22.7967 7.95933C22.7967 7.95933 22.9323 7.50725 23.3844 7.41683C23.8365 7.37162 24.1982 7.46204 24.1982 7.46204C24.1982 7.46204 24.2434 7.236 23.8817 7.05517C23.5653 6.87433 23.1584 6.82913 23.1584 6.82913C23.1584 6.82913 23.4296 6.42226 23.8817 6.51267C24.3338 6.60309 24.5146 6.60309 24.5146 6.60309C24.5146 6.60309 24.605 6.37705 24.153 6.15101C23.9269 6.06059 23.4748 6.01538 23.4748 6.01538C23.4748 6.01538 23.7009 5.5633 24.2434 5.65372C24.7859 5.74414 24.7407 5.65372 24.7407 5.65372C24.7407 5.65372 24.8763 5.5633 24.379 5.24685C23.8817 4.9756 23.8817 4.65914 23.8817 4.65914C23.8817 4.65914 24.379 4.4331 24.4694 4.29748C24.5598 4.20707 24.5598 4.11665 24.5598 3.98103C24.0173 3.89061 23.3392 3.75499 22.8419 3.66457C22.8419 3.43853 23.1132 3.34811 23.294 3.39332C23.6557 3.39332 24.0173 3.48374 24.379 3.52895C24.5598 3.2577 24.8311 2.76041 24.8311 2.76041L25.2379 3.48374L25.4188 3.39332C25.4188 3.39332 25.8709 2.35354 25.9613 2.21791C26.0969 1.99188 26.5942 1.85625 26.8202 1.81104C27.5888 1.49459 28.086 1.44938 28.1313 1.94667C28.1765 2.30833 27.9052 2.44395 27.7696 2.7152C27.5888 3.12207 27.634 3.52895 27.4079 4.02623C27.0463 4.52352 26.6394 5.11122 26.2777 5.69893C26.0517 6.06059 25.9161 6.28663 25.9161 6.42226C25.9613 6.6935 26.2777 6.96475 26.2325 7.37162C26.5942 7.55245 26.9558 7.77849 26.9558 8.32099C27.3627 8.50182 27.4983 8.77307 27.4983 8.9539V9.81285C27.4983 10.1293 27.1819 10.6266 27.2271 10.717C27.2271 11.0787 27.2271 11.3499 27.2723 11.6212C27.2723 11.7568 27.3175 12.0732 27.3175 12.1637C27.2723 12.5253 27.0011 12.5705 26.775 12.661C28.3121 15.8707 30.2108 19.7134 31.7479 22.9684C31.9739 23.4204 32.1548 23.9629 32.426 24.3698C32.6521 24.7315 33.511 25.2288 33.511 25.2288L33.4206 26.1329L32.5616 27.1727L32.4712 31.8291L37.4441 35.5814C37.5345 35.6266 39.7045 34.7224 39.7045 34.7224C38.8003 35.8978 38.303 36.3499 36.9468 37.1637C35.2289 38.1582 32.9685 38.8816 31.7479 39.3337C31.4314 39.4693 31.5218 39.6501 31.7931 39.6049C32.5616 39.5145 33.2398 39.4241 33.737 39.3337C34.0535 39.2884 34.0987 39.5145 33.8275 39.6501C31.9739 40.5543 30.3464 41.0516 27.9504 41.6845C21.8021 43.312 15.473 44.849 9.27954 46.3861C6.2054 47.1546 3.22167 48.104 0.599609 49.415C0.916065 48.5561 2.2723 47.4711 2.2723 47.4711V45.8888L0.780441 45.6176L0.644817 45.3915L1.95585 44.3969L3.22167 43.312C3.22167 43.312 3.71896 42.5886 3.99021 42.1818C5.21082 40.283 6.43144 38.4295 7.65205 36.5308C7.9233 36.1239 8.19455 35.8074 8.33017 35.3554C8.511 34.9033 8.82746 34.0443 8.82746 34.0443L8.37538 33.8183C8.28496 33.7731 8.01371 33.4566 8.01371 33.321C8.05892 33.1854 9.36995 32.01 9.91245 31.3771C10.7714 30.4277 10.9522 30.2016 11.5399 29.4783C12.2633 28.5289 12.851 27.444 12.851 27.444L13.8455 25.3644L16.6484 26.359L16.1059 25.0931L17.0101 24.6411L21.8473 14.198C21.8473 14.198 22.2994 13.0678 22.2994 12.1185C22.9775 11.6212 23.8817 11.6212 25.1023 11.576H25.8709V9.40598C25.6448 9.31557 25.1475 9.27036 25.1475 9.27036V10.6718H24.605V9.22515C23.8365 9.17994 22.9323 9.27036 22.4803 9.5416C22.4803 9.58681 22.4351 8.9539 23.0228 8.72786ZM21.0788 22.7423C21.0788 22.7423 23.294 16.7749 24.1982 13.3843H25.0571L28.2217 22.7875L29.8944 23.5561C29.8944 23.5561 27.1367 16.1872 26.0065 12.8418C25.69 12.1637 24.0173 12.5705 23.52 12.5705L23.3844 12.8418C23.2488 12.887 18.5924 22.4711 17.643 24.415L21.0788 22.7423ZM25.4188 25.8617C23.7461 24.4602 22.7063 24.3246 22.7063 24.3246L22.6611 26.2686L23.068 25.8617C23.068 25.8617 28.0408 29.2975 28.3121 29.4783C28.4929 29.6139 28.6737 29.4331 28.5381 29.2975C27.9052 28.3481 26.549 26.7658 25.4188 25.8617ZM19.8582 24.5506C19.2253 24.8671 17.9595 25.5904 17.9595 25.5904L17.9143 26.9015L19.8582 27.5796L20.3103 28.8002L21.7569 27.2631L21.8021 24.0534C20.9432 24.0534 20.4911 24.189 19.8582 24.5506ZM12.8058 42.2722C12.4441 42.453 11.3139 43.538 11.2687 43.538L11.2235 43.5832L23.7009 40.283V32.0552C23.7009 32.0552 26.549 31.9648 26.8202 31.9648C27.0915 31.9648 27.0463 31.7387 26.8654 31.6935C26.549 31.6031 25.4188 31.1962 25.4188 31.1962C25.4188 31.1962 23.3392 31.0606 22.8871 31.0606C22.7063 31.0606 20.3555 32.0552 20.3555 32.0552V38.7459C20.3555 38.7459 13.1674 42.0913 12.8058 42.2722ZM10.5454 40.4639C11.4947 39.8761 11.9016 38.0226 12.3085 36.2595L13.2578 32.3264C13.2578 32.3264 11.3591 33.5018 10.1837 34.1347C10.1837 34.1347 9.27954 35.1745 9.00829 35.6718C8.69183 36.2595 3.4025 44.3969 3.4025 44.3969C3.4025 44.3969 9.32474 41.0968 10.5454 40.4639ZM5.88894 44.0805C5.16561 44.4422 3.44771 45.3915 3.44771 45.3915V46.9286C4.39708 46.4313 5.21082 46.0244 6.38623 45.5723C7.3808 45.1655 9.77682 44.4422 9.77682 44.4422V42.1365C9.77682 42.1365 6.65747 43.7188 5.88894 44.0805ZM13.2126 31.0606C15.0662 29.9756 14.7949 27.2179 14.7949 27.2179C14.7949 27.2179 13.303 28.2125 12.6249 29.1619C11.9468 30.066 9.73162 32.9141 9.73162 32.9141C9.73162 32.9141 11.3591 32.1456 13.2126 31.0606Z" fill="black"/>
</g>
<defs>
<clipPath id="clip0_87_145">
<rect width="199.91" height="50" fill="white" transform="translate(0.599609 0.5)"/>
</clipPath>
</defs>
</svg>
