<svg width="207" height="51" viewBox="0 0 207 51" fill="none" xmlns="http://www.w3.org/2000/svg">
<g opacity="0.5" clip-path="url(#clip0_87_147)">
<path d="M167.817 21.2396V37.5433C167.402 44.0046 157.902 44.0046 157.487 37.5433V21.2396H148.502V39.3093C148.502 45.4117 154.83 50.3593 162.619 50.3593C170.408 50.3593 176.736 45.4117 176.736 39.3093V21.2396H167.817H167.817ZM197.036 1.86035V49.3093H206.071V1.86035H197.036ZM181.696 49.3093H190.731V1.86035H181.696V49.3093ZM137.446 24.628C138.683 23.5165 139.676 22.1605 140.362 20.6456C141.048 19.1307 141.413 17.4899 141.432 15.827C141.427 12.7982 140.259 9.88692 138.17 7.69368C136.044 5.32396 132.198 3.99471 127.042 3.99471H111.587V49.3093H131.55C139.191 49.1916 145.368 43.4121 145.368 36.3314C145.357 31.1784 143.542 27.495 137.446 24.628ZM129.877 41.4151H121.231V11.8076H127.254C129.96 11.9338 132.086 14.1818 132.058 16.8899C132.058 19.5416 129.905 21.6886 127.255 21.6831H124.12V29.8263H129.877C137.633 29.8263 137.633 41.4535 129.877 41.4535V41.4151ZM31.9106 17.41C31.8941 15.6374 31.5282 13.8854 30.8337 12.2544C30.1393 10.6234 29.13 9.14537 27.8636 7.90491C26.5986 6.6631 25.1013 5.68274 23.4572 5.01986C21.8132 4.35698 20.0546 4.02457 18.282 4.04164H1.74561V49.3097H11.3599V11.8076H16.3391C19.715 11.6916 22.5337 14.3644 22.5891 17.743C22.4402 21.1233 19.5987 23.7665 16.2116 23.6586H13.9793V34.4933L23.5456 49.3097H34.8126L21.5262 30.4032C27.5779 28.9961 31.8721 23.6219 31.9106 17.41ZM48.7259 20.0675C40.5242 20.2886 33.9936 26.9978 33.9936 35.1964C33.9936 43.4022 40.5242 50.11 48.7259 50.3338C55.0296 50.3338 59.9415 47.4811 62.4827 43.0209L55.1357 39.6253C54.6162 40.6773 53.8071 41.5591 52.8037 42.1671C51.8002 42.7751 50.6441 43.084 49.4711 43.0576C46.199 43.2008 43.4381 40.6569 43.316 37.3831V37.0729H63.234C63.2949 36.4692 63.3218 35.8682 63.316 35.2573C63.4565 25.4359 56.9854 20.0675 48.7259 20.0675ZM43.2837 31.9199C43.1446 28.775 45.6589 26.1515 48.8079 26.1515C51.9514 26.1515 54.4643 28.775 54.3283 31.9199H43.2837ZM99.2473 49.3093V1.86035H90.201V24.3178C87.7954 21.8933 84.5264 20.5217 81.1109 20.5039C73.6704 20.5039 67.5919 27.1263 67.5919 35.2896C67.5919 43.4505 73.6521 50.1382 81.1109 50.1382C82.8171 50.1234 84.5033 49.7691 86.0712 49.0961C87.6392 48.4231 89.0575 47.4448 90.2436 46.2182V49.407L99.247 49.3093H99.2473ZM83.6745 42.376C80.0211 42.376 77.0419 39.1263 77.0419 35.1185C77.0419 31.1117 80.0211 27.8168 83.6745 27.8168C87.334 27.8168 90.3174 31.0719 90.3174 35.0855C90.3174 39.1052 87.3453 42.376 83.6745 42.376Z" fill="black"/>
</g>
<defs>
<clipPath id="clip0_87_147">
<rect width="206.463" height="50" fill="white" transform="translate(0.407227 0.5)"/>
</clipPath>
</defs>
</svg>
