<svg width="137" height="51" viewBox="0 0 137 51" fill="none" xmlns="http://www.w3.org/2000/svg">
<g opacity="0.5" clip-path="url(#clip0_87_207)">
<mask id="mask0_87_207" style="mask-type:luminance" maskUnits="userSpaceOnUse" x="16" y="16" width="21" height="19">
<path d="M24.1572 23.2989C21.707 23.2574 19.2153 23.2574 16.7651 23.2159C18.3017 24.877 20.2535 26.3305 22.5376 27.6594C21.7485 29.985 20.9595 32.3521 20.1705 34.6777C22.2053 33.7225 24.1987 32.3521 26.192 30.5664C28.1854 32.0199 30.1372 33.5149 32.1306 34.9684C31.8399 32.7258 31.1339 30.4003 30.0542 27.9916C32.0475 26.5797 34.0824 25.1262 36.0758 23.7142C33.8748 23.2989 31.4246 23.2159 28.7668 23.5066L26.5658 16.4468C25.5276 18.3986 24.697 20.6827 24.1572 23.2989Z" fill="white"/>
</mask>
<g mask="url(#mask0_87_207)">
<path d="M16.7651 16.4053H36.1173V34.9684H16.7651V16.4053Z" fill="url(#paint0_radial_87_207)"/>
</g>
<mask id="mask1_87_207" style="mask-type:luminance" maskUnits="userSpaceOnUse" x="0" y="0" width="137" height="51">
<path d="M0.0708008 0.5H136.616V50.5H0.0708008V0.5Z" fill="white"/>
</mask>
<g mask="url(#mask1_87_207)">
<path d="M94.0492 24.7938C94.0492 19.9766 96.1256 16.2806 98.991 16.2806C100.984 16.2806 102.729 18.5646 102.729 21.2224C102.729 22.4267 102.396 23.1742 101.649 23.7141C101.109 24.1294 99.4894 24.9184 98.4927 25.3752L94.2153 27.1194C94.1322 26.0812 94.0492 25.4168 94.0492 24.7938ZM133.75 25.8321C132.463 24.7523 131.092 24.1709 126.4 22.759C126.4 22.759 122.205 21.4301 121.499 21.0148C120.71 20.558 120.212 19.6028 120.212 18.6892C120.212 16.8204 121.873 15.5331 124.282 15.5331C126.15 15.5331 128.144 16.6543 129.348 18.4816C130.428 20.1012 130.636 20.3088 131.217 20.3088C131.881 20.3088 132.837 19.5613 133.75 18.4816C134.415 17.6925 134.747 17.0696 134.747 16.5297C134.747 14.5779 129.68 12.5845 124.572 12.5845C118.011 12.5845 113.484 16.1975 113.484 21.4301C113.484 23.1742 114.066 24.96 115.104 26.2473C116.308 27.6593 117.969 28.4483 121.375 29.4035C129.016 31.3968 130.802 32.6012 130.802 35.342C130.802 37.9998 128.31 39.9517 125.237 39.9517C122.579 39.9517 119.838 38.6643 116.35 35.5912C115.146 34.5945 114.606 34.2623 114.066 34.2623C113.318 34.2623 112.737 34.8437 112.737 35.7158C112.737 35.9649 112.778 36.2972 112.861 36.6709C110.328 37.9998 107.338 38.9134 105.22 38.9134C102.396 38.9134 99.8631 37.9168 97.9944 36.0895C96.4578 34.6776 95.7103 33.4317 94.7967 30.5247L105.968 25.9566C108.999 24.6693 110.204 23.2158 110.204 20.6826C110.204 16.2806 105.594 12.5015 100.237 12.5015C92.5542 12.5015 86.1173 19.3952 86.1173 27.6178C86.1173 30.8985 87.0309 33.9301 88.609 36.4218L87.5292 36.9616C85.6605 38.0829 83.8332 38.7473 81.2585 39.3703C83.4595 36.837 84.4146 34.636 84.4146 31.9367C84.4146 29.6111 83.2934 27.2025 81.5492 25.7075C80.2618 24.6277 78.8914 24.0463 74.1987 22.6344C74.1987 22.6344 69.9628 21.3055 69.2983 20.8902C68.5093 20.4334 68.011 19.4782 68.011 18.5646C68.011 16.6958 69.6721 15.4085 72.0807 15.4085C73.9495 15.4085 75.9429 16.5297 77.1472 18.357C78.2269 19.9766 78.4346 20.1842 79.016 20.1842C79.6804 20.1842 80.6355 19.4367 81.5492 18.357C82.2136 17.5679 82.5459 16.945 82.5459 16.4051C82.5459 14.4533 77.4794 12.46 72.3714 12.46C65.81 12.46 61.2834 16.0729 61.2834 21.3055C61.2834 23.0497 61.9063 24.8354 62.903 26.1228C64.1073 27.5347 65.7684 28.3237 69.1738 29.2789C76.815 31.2723 78.6007 32.4766 78.6007 35.2174C78.6007 37.8752 76.109 39.8271 73.0359 39.8271C70.3781 39.8271 67.5957 38.5397 64.1488 35.4666C62.9445 34.4699 62.4047 34.1377 61.8648 34.1377C61.1173 34.1377 60.5359 34.7191 60.5359 35.5912C60.5359 36.6709 61.3249 39.0796 61.9894 40.1593C63.1937 42.1526 67.4711 43.44 72.9113 43.44C77.5209 43.44 81.2585 42.651 85.0791 40.9483C87.3216 39.9517 88.9827 38.8719 89.6887 37.9583C92.4296 41.3221 96.4993 43.3985 101.109 43.3985C104.847 43.3985 108.543 42.2772 112.155 39.9932C112.695 39.661 113.194 39.3287 113.609 38.9965C113.817 39.4533 113.983 39.8686 114.19 40.1593C115.395 42.1526 119.672 43.44 125.071 43.44C129.473 43.44 136.491 40.9899 136.491 31.9367C136.616 29.6942 135.494 27.2855 133.75 25.8321Z" fill="black"/>
</g>
<mask id="mask2_87_207" style="mask-type:luminance" maskUnits="userSpaceOnUse" x="0" y="0" width="50" height="51">
<path d="M11.4495 12.7508C12.2801 16.613 13.8997 20.1429 16.7236 23.2159C11.2004 23.1744 5.63558 23.0914 0.0708008 23.0498C5.34489 27.5349 7.87811 32.0199 8.58409 36.4635C12.5293 36.8787 16.3914 36.4219 20.1705 34.6777C18.3848 39.9518 16.6406 45.2259 14.8549 50.5C20.7519 46.8455 25.8183 45.8488 30.2618 46.5548C31.8399 42.9419 32.6289 39.1213 32.1306 34.9684C36.5741 38.2907 41.0592 41.613 45.5442 44.9352C43.9246 38.1661 44.506 33.0997 46.5409 29.0714C43.5924 26.4552 40.2286 24.5033 36.1173 23.7143C40.6439 20.4751 45.1705 17.2774 49.7386 14.0382C42.8034 13.4983 38.1522 11.3389 34.9545 8.18272C31.5492 10.1761 28.6422 12.7924 26.6489 16.4468C27.3964 18.814 28.1439 21.1395 28.8499 23.5066C31.5077 23.2159 33.9163 23.299 36.1588 23.7143C34.1655 25.1262 32.1306 26.5797 30.1372 27.9917C31.217 30.4419 31.923 32.7674 32.2137 34.9684C30.2203 33.5149 28.2685 32.0199 26.2751 30.5664C24.2818 32.3522 22.2884 33.7226 20.2535 34.6777C21.0426 32.3522 21.8316 29.9851 22.6206 27.6595C20.2951 26.3306 18.3848 24.8355 16.8482 23.2159C19.2984 23.2575 21.7901 23.2575 24.2402 23.299C24.7801 20.6827 25.6107 18.3987 26.6904 16.4053C25.0293 11.0897 23.3681 5.77409 21.707 0.5C18.9661 6.93688 15.4778 10.6744 11.4495 12.7508Z" fill="white"/>
</mask>
<g mask="url(#mask2_87_207)">
<path d="M0.0708008 0.5H49.697V50.5H0.0708008V0.5Z" fill="url(#paint1_radial_87_207)"/>
</g>
</g>
<defs>
<radialGradient id="paint0_radial_87_207" cx="0" cy="0" r="1" gradientUnits="userSpaceOnUse" gradientTransform="translate(26.4283 25.6875) scale(9.47541)">
<stop stop-color="white"/>
<stop offset="1" stop-color="white"/>
</radialGradient>
<radialGradient id="paint1_radial_87_207" cx="0" cy="0" r="1" gradientUnits="userSpaceOnUse" gradientTransform="translate(26.506 26.6114) scale(27.0964 27.4289)">
<stop/>
<stop offset="1"/>
</radialGradient>
<clipPath id="clip0_87_207">
<rect width="136.545" height="50" fill="white" transform="translate(0.0708008 0.5)"/>
</clipPath>
</defs>
</svg>
