<svg width="298" height="51" viewBox="0 0 298 51" fill="none" xmlns="http://www.w3.org/2000/svg">
<g opacity="0.5" clip-path="url(#clip0_87_137)">
<path d="M292.109 12.1259V10.9263H293.599C294.079 10.9263 294.32 11.118 294.32 11.5013C294.32 11.9342 294.079 12.1259 293.599 12.1259H292.109ZM295.328 11.3559C295.328 10.4901 294.753 10.0605 293.741 10.0605H291.147V14.8622H292.109V12.9422H293.55C294.029 12.9422 294.174 13.0876 294.174 13.4709V14.1418C294.174 14.4293 294.174 14.6209 294.27 14.8622H295.328C295.182 14.6209 295.182 14.4293 295.182 14.1418V13.2759C295.182 12.7968 295.037 12.506 294.558 12.4101C295.037 12.2647 295.328 11.9309 295.328 11.3526M293.071 16.5872C290.476 16.5872 289.036 15.1464 289.036 12.5522C289.036 9.95803 290.476 8.51719 293.071 8.51719C295.665 8.51719 297.106 9.95803 297.106 12.5522C297.106 15.1464 295.665 16.5872 293.071 16.5872ZM293.071 7.8926C290.139 7.8926 288.315 9.62095 288.315 12.5522C288.315 15.4835 290.139 17.2118 293.071 17.2118C296.002 17.2118 297.826 15.4835 297.826 12.5522C297.826 9.62095 296.002 7.8926 293.071 7.8926ZM275.106 21.0056C278.325 21.0056 280.245 22.3506 280.724 25.7611H269.293C269.773 22.4002 271.887 21.0056 275.106 21.0056ZM282.264 32.724C280.632 35.7016 279.045 37.1424 275.827 37.1424C271.408 37.1424 269.247 34.9316 269.197 30.034H287.882V28.6428C287.882 20.044 283.031 15.2422 275.202 15.2422C266.845 15.2422 261.56 20.7181 261.56 29.3632C261.56 38.0083 266.845 43.4841 275.777 43.4841C282.502 43.4841 286.008 41.0354 288.361 36.2799L282.261 32.7274L282.264 32.724ZM251.236 42.81V27.8232C251.236 23.9798 253.348 22.6348 256.471 22.6348C258.249 22.6348 259.257 22.9223 260.361 23.5007L262.667 16.5377C261.418 15.8668 260.073 15.4339 258.345 15.4339C254.597 15.4339 252.244 17.5489 251.187 21.4385H251.041V15.9164H243.646V42.8133H251.233L251.236 42.81ZM226.692 36.8054C222.611 36.8054 219.921 34.5945 219.921 29.3599C219.921 24.1253 222.611 21.8681 226.692 21.8681C230.774 21.8681 233.464 24.1253 233.464 29.3599C233.464 34.5945 230.774 36.8054 226.692 36.8054ZM224.098 43.3387C228.084 43.3387 231.111 41.7525 233.08 38.1999H233.226V42.81H240.575V15.9131H232.988V20.1894H232.842C230.922 16.8748 227.945 15.3876 224.102 15.3876C217.185 15.3876 212.191 20.1431 212.191 29.3632C212.191 38.5833 217.188 43.3387 224.102 43.3387M200.519 35.7512L195.523 15.9164H186.494L181.788 35.6091L177.32 15.9164H169.541L176.17 42.8133H186.497L191.012 24.0327L195.717 42.8133H205.949L212.578 15.9164H204.99L200.523 35.7512H200.519ZM157.436 15.9164H150.04V42.8133H157.628V27.8265C157.628 23.9831 159.739 22.6381 162.383 22.6381C164.161 22.6381 165.169 22.9256 166.273 23.504L168.579 16.541C167.426 15.8701 166.131 15.4372 164.498 15.4372C160.896 15.4372 158.589 17.5522 157.581 21.4418H157.436V15.9197V15.9164ZM134.957 21.0089C138.176 21.0089 140.096 22.3539 140.575 25.7644H129.144C129.624 22.4035 131.739 21.0089 134.957 21.0089ZM142.115 32.7274C140.483 35.7049 138.897 37.1457 135.678 37.1457C131.259 37.1457 129.098 34.9349 129.048 30.0373H147.733V28.6461C147.733 20.0473 142.882 15.2455 135.053 15.2455C126.696 15.2455 121.411 20.7214 121.411 29.3665C121.411 38.0116 126.696 43.4874 135.628 43.4874C142.353 43.4874 145.86 41.0387 148.212 36.2832L142.112 32.7307L142.115 32.7274ZM105.083 36.8582C101.002 36.8582 98.3115 34.6011 98.3115 29.3665C98.3115 24.1319 101.002 21.921 105.083 21.921C109.164 21.921 111.854 24.1319 111.854 29.3665C111.854 34.6011 109.164 36.8582 105.083 36.8582ZM98.7907 50.5V38.5403H98.9361C100.856 41.8549 103.834 43.342 107.677 43.342C114.594 43.342 119.587 38.5866 119.587 29.3665C119.587 20.1464 114.59 15.3909 107.677 15.3909C103.692 15.3909 100.664 16.9772 98.6948 20.5297H98.5494V15.9197H91.1998V50.5H98.7874H98.7907ZM74.2467 36.8582C70.1654 36.8582 67.4753 34.6011 67.4753 29.3665C67.4753 24.1319 70.1654 21.921 74.2467 21.921C78.328 21.921 81.018 24.1319 81.018 29.3665C81.018 34.6011 78.328 36.8582 74.2467 36.8582ZM67.9545 50.5V38.5403H68.0999C70.02 41.8549 72.9975 43.342 76.8409 43.342C83.7576 43.342 88.751 38.5866 88.751 29.3665C88.751 20.1464 83.7543 15.3909 76.8409 15.3909C72.8554 15.3909 69.8283 16.9772 67.8587 20.5297H67.7133V15.9197H60.3636V50.5H67.9512H67.9545ZM40.8163 43.2958C45.0893 43.2958 48.3577 41.3757 49.7985 37.7241H49.9439V42.8166H57.2936V15.9197H49.706V30.8569C49.706 35.1794 47.591 36.812 44.1343 36.812C40.6775 36.812 38.7079 35.1795 38.7079 30.9032V15.9164H31.1204V33.3024C31.1204 39.7862 34.5308 43.2925 40.8229 43.2925M31.1204 8.75842H10.7072C18.4402 7.75049 24.924 5.58923 30.0166 2.42003L28.9128 0.5C22.0456 4.77627 11.3351 7.36715 0 7.36715V15.9164H11.768V42.8133H19.5473V15.9164H31.1237V8.75842H31.1204Z" fill="black"/>
</g>
<defs>
<clipPath id="clip0_87_137">
<rect width="297.826" height="50" fill="white" transform="translate(0 0.5)"/>
</clipPath>
</defs>
</svg>
