<svg width="129" height="51" viewBox="0 0 129 51" fill="none" xmlns="http://www.w3.org/2000/svg">
<g opacity="0.5" clip-path="url(#clip0_87_220)">
<path d="M5.26397 49.8224C8.27331 47.0555 11.2826 44.2887 14.292 41.5218L14.0235 41.0472H0.615723C1.14642 40.382 1.37742 40.026 1.67087 39.7325C5.79778 35.6197 9.90597 31.485 14.0984 27.4378C14.6916 26.8663 15.7093 26.451 16.5334 26.4447C26.4168 26.376 36.3001 26.4041 46.1835 26.401C49.5519 26.401 52.9233 26.4728 56.2854 26.351C61.5705 26.1605 65.7005 23.3906 69.509 20.0585C72.9897 17.0137 76.2488 13.6941 79.8794 10.8398C86.7285 5.45914 94.4703 1.81165 103.18 0.834199C107.75 0.322051 112.411 0.546897 117.028 0.565634C119.775 0.578125 122.522 0.815462 125.263 0.99971C126.271 1.06841 127.27 1.28077 128.616 1.48063C128.113 2.09583 127.87 2.45496 127.57 2.75475C123.399 6.9019 119.204 11.0209 115.064 15.1962C114.328 15.9394 113.585 16.1018 112.583 16.1049C105.871 16.1174 99.0593 16.0706 93.1779 19.893C90.0312 21.9384 87.2654 24.596 84.4309 27.0911C81.587 29.5957 78.9928 32.3938 76.0646 34.789C71.8222 38.2585 66.7806 39.9542 61.3613 40.6599H88.4516C88.1613 41.1003 88.024 41.4032 87.8054 41.628C85.1582 44.3512 82.5172 47.0837 79.8232 49.7599C79.4299 50.1503 78.7649 50.4719 78.2249 50.4719C54.2407 50.5063 30.2565 50.5 6.26916 50.4938C6.07562 50.4938 5.88207 50.4313 5.6854 50.397L5.26397 49.8193V49.8224Z" fill="black"/>
</g>
<defs>
<clipPath id="clip0_87_220">
<rect width="128" height="50" fill="white" transform="translate(0.615723 0.5)"/>
</clipPath>
</defs>
</svg>
