<svg width="202" height="51" viewBox="0 0 202 51" fill="none" xmlns="http://www.w3.org/2000/svg">
<g opacity="0.5" clip-path="url(#clip0_87_150)">
<path d="M0 17.5139C0 17.5139 27.6213 13.9028 28.4541 13.7639C29.6339 13.5556 30.7443 13.3472 31.7159 13.0694C33.9367 12.4444 36.0187 11.5417 37.8231 10.2917C39.5581 9.11111 41.2237 7.375 42.8199 5.5C43.8609 4.31944 44.9019 2.72222 45.9429 1.19444V0.5C44.7631 2.30556 43.5833 3.83333 42.4035 5.15278C40.8073 6.95833 39.1417 8.41667 37.4067 9.52778C35.6717 10.6389 33.6591 11.5417 31.5077 12.0972C30.5361 12.375 29.4951 12.5139 28.3153 12.7222C27.5519 12.8611 26.7885 12.9306 26.0251 13C25.6781 13 0 15.7083 0 15.7083V17.5139Z" fill="black"/>
<path d="M37.0597 12.8613C35.3247 13.8335 33.3121 14.5974 31.0913 15.0141C30.1197 15.2224 29.1481 15.3613 27.9683 15.5002L25.8863 15.7086C25.5393 15.7086 25.1229 15.778 24.7759 15.778C16.309 16.6113 7.91162 17.3752 0 18.1391V19.9447C7.91162 18.9724 16.4478 17.9308 24.9147 16.9585C25.2617 16.8891 25.6781 16.8891 26.0251 16.8197C26.7191 16.7502 27.4131 16.6808 28.1071 16.5419C29.2869 16.403 30.3973 16.1947 31.2995 15.9863C33.5897 15.5002 35.6717 14.6669 37.4761 13.5558C39.2805 12.4447 40.8073 10.9863 42.5423 9.11133C43.5833 7.93077 44.7631 6.33355 45.8735 4.80577V4.11133C44.5549 5.84744 43.3751 7.37522 42.1259 8.62522C40.4603 10.5002 38.7947 11.8891 37.0597 12.8613Z" fill="black"/>
<path d="M41.9177 12.4443C40.2521 13.9721 38.4477 15.2221 36.7127 16.1249C34.9777 16.9582 33.0345 17.5832 30.7443 17.9304C29.7727 18.0693 28.8011 18.2082 27.6213 18.3471L0 20.5693V22.3749L24.4983 19.736L27.6907 19.3888C28.8705 19.2499 29.9115 19.111 30.8831 18.9027C33.2427 18.486 35.2553 17.7916 37.0597 16.8888C38.9335 15.9166 40.7379 14.3888 42.4729 12.7221C43.6527 11.611 44.6937 10.1527 45.8735 8.69434V8.06934C44.4855 9.80545 43.2363 11.1943 41.9177 12.4443Z" fill="black"/>
<path d="M35.2553 21.7499C33.6591 22.6527 32.4793 23.2082 30.1891 23.4166C28.8011 23.5554 27.4131 23.6249 26.0251 23.6943C25.3311 23.6943 24.7065 23.7638 24.0125 23.8332C19.8484 24.0416 15.7538 24.3193 11.5898 24.5971L0 25.4304V27.236L11.6592 26.1249C15.4068 25.7777 19.7791 25.361 24.0819 25.0138L27.2049 24.8054C28.3847 24.736 29.4257 24.5971 30.3279 24.4582C32.6875 24.1804 34.7001 23.6943 36.5045 22.9999C38.4477 22.3054 40.2521 21.1249 42.0565 19.8054C43.7221 18.6249 45.9429 16.2638 45.9429 16.1943V15.5693C44.4855 17.0277 43.5833 17.861 41.9871 18.9027C39.9745 20.2916 36.7127 20.986 35.2553 21.7499Z" fill="black"/>
<path d="M35.8104 25.2222C34.0754 25.7083 32.1322 26.0555 29.842 26.2638C28.9398 26.3333 27.8988 26.4027 26.7884 26.4722L23.7348 26.6111C16.1008 26.9583 8.46676 27.3749 0.0693359 27.7916V29.5972C8.11976 28.9722 15.962 28.3472 23.8736 27.7916L26.9272 27.5833C28.107 27.5138 29.0786 27.4444 30.0502 27.3055C32.4098 27.0277 34.4224 26.6111 36.1574 26.0555C38.1006 25.4305 40.0438 24.5277 41.8482 23.3472C43.1668 22.5138 44.5548 21.4722 45.9428 20.2222C44.416 21.5416 42.9586 21.8194 41.5012 22.7222C39.6274 23.8333 37.7536 24.6666 35.8104 25.2222Z" fill="black"/>
<path d="M35.5329 28.2085C33.7979 28.6252 31.8547 28.9029 29.5645 29.0418C28.6623 29.1113 27.6907 29.1807 26.5109 29.1807L23.4573 29.3196C15.7538 29.5974 7.98102 29.9446 0 30.2918V32.0974C7.91162 31.5418 15.6844 31.0557 23.5267 30.5002L26.5803 30.2918C27.7601 30.2224 28.7317 30.1529 29.6339 30.0835C31.9935 29.8752 33.9367 29.5279 35.7411 29.0418C37.7537 28.4863 39.6969 27.7224 41.5707 26.7502C43.0281 25.9863 44.4161 25.0835 45.8735 23.9724V23.2085C44.2773 24.3891 42.7505 25.2918 41.2237 26.0557C39.4193 27.0279 37.4761 27.7224 35.5329 28.2085Z" fill="black"/>
<path d="M35.2553 31.1251C33.5203 31.4723 31.5771 31.6806 29.2869 31.7501C28.3847 31.8195 27.4825 31.8195 26.3027 31.8889L0 32.5834V34.3889L23.3185 33.1389L26.3721 33.0001C27.5519 32.9306 28.5235 32.8612 29.4257 32.7917C31.7853 32.5834 33.6591 32.3751 35.4635 31.9584C37.4761 31.5417 39.4887 30.9167 41.3625 30.0834C42.8893 29.4584 44.3467 28.6945 45.9429 27.7223V27.0278C44.2773 28.0001 42.6811 28.7639 41.0849 29.3889C39.2111 30.2223 37.2679 30.7778 35.2553 31.1251Z" fill="black"/>
<path d="M35.0471 34.0415C31.7853 34.4582 28.5235 34.5276 25.2617 34.5971C24.4983 34.5971 23.8043 34.5971 23.0409 34.6665L0 35.0832V36.8887L23.1103 35.9165C23.8737 35.9165 24.5677 35.8471 25.3311 35.8471C28.5929 35.7082 31.9241 35.5693 35.1859 35.0832C37.2679 34.7359 39.2805 34.2498 41.0849 33.6248C42.6117 33.1387 44.2079 32.4443 45.8041 31.6109V30.9165C44.1385 31.6804 42.4035 32.3748 40.8073 32.8609C39.0723 33.3471 37.1291 33.8332 35.0471 34.0415Z" fill="black"/>
<path d="M34.9083 37.0276C31.8547 37.3054 28.8011 37.3054 25.7475 37.3054H22.9715C15.3374 37.3054 7.70342 37.3748 0 37.4443V39.2498C7.35642 38.9721 15.1986 38.7637 23.0409 38.4859C23.9431 38.4859 24.9147 38.4165 25.8169 38.4165C28.8011 38.3471 31.9241 38.2776 34.9777 37.9304C37.1291 37.7221 39.0723 37.3748 40.9461 36.8887C42.5423 36.4721 44.2079 35.9165 45.9429 35.2915V34.6665C44.2079 35.2915 42.4729 35.7776 40.8073 36.1943C38.9335 36.6109 36.9903 36.8887 34.9083 37.0276Z" fill="black"/>
<path d="M34.7695 39.9444C33.5203 40.0139 32.1323 40.0139 30.6055 40.0139H28.8705L22.9021 39.9444C18.8074 39.9444 14.7822 39.875 10.9652 39.875L0 39.9444V41.75L11.0346 41.4722C14.8516 41.4028 18.8768 41.2639 22.9021 41.1944L28.8705 41.125C30.5361 41.125 32.6875 41.0556 34.8389 40.9167C36.9903 40.7778 38.9335 40.5694 40.8073 40.2917C42.4729 40.0139 44.2079 39.6667 45.9429 39.25V38.625C44.2079 39.0417 42.4035 39.3889 40.7379 39.5972C38.7947 39.7361 36.9209 39.875 34.7695 39.9444Z" fill="black"/>
<path d="M28.8011 42.7915L22.8327 42.7221C15.268 42.5832 7.70342 42.4443 0 42.3054V44.1109C7.35642 44.0415 15.1292 43.9721 22.8327 43.9026L28.8011 43.8332C30.8137 43.8332 32.7569 43.7637 34.7695 43.6943C38.8641 43.5554 42.4729 43.2776 45.9429 42.7915V42.1665C42.5423 42.5137 38.8641 42.7221 34.7695 42.7915H28.8011Z" fill="black"/>
<path d="M45.8735 45.9862L0 44.8057V46.6112H45.8735V45.9862Z" fill="black"/>
<path d="M41.7789 15.7776C40.0439 17.1664 38.6559 18.2081 36.5739 19.0415C34.7001 19.8053 32.6875 20.0831 30.4667 20.4303C29.0093 20.6387 27.4825 20.9164 26.0251 21.0553C25.4005 21.1248 24.8453 21.1248 24.2207 21.1942L0 22.9303V24.7359L24.2207 22.3748L27.3437 22.097C28.5235 21.9581 29.5645 21.8887 30.5361 21.6803C32.8957 21.3331 34.9083 20.7081 36.7127 19.8748C38.5865 19.0414 40.5297 17.6526 42.2647 16.1942C43.4445 15.1526 44.6243 13.9026 45.8735 12.5137V11.8887C44.3467 13.4164 43.0975 14.7359 41.7789 15.7776Z" fill="black"/>
<path d="M65.375 0.5C65.375 0.5 73.6336 13.625 75.1604 16.0556C76.6872 18.4861 78.4222 20.3611 84.5295 21.6806C90.6367 23 93.2739 23.5556 93.2739 23.5556V24.0417C93.2739 24.0417 89.3875 23.2083 84.3906 22.0972C79.3938 20.9861 77.3812 20.6389 75.091 17.4444C73.2172 14.8056 65.375 3.625 65.375 3.625V0.5Z" fill="black"/>
<path d="M65.375 15.5C65.375 15.5 72.8702 23.3472 75.091 25.6389C77.3812 28.0694 80.3654 28.9028 84.46 29.6667C88.3465 30.3611 93.2739 31.1944 93.2739 31.1944V31.6111C93.2739 31.6111 88.6241 30.8472 84.46 30.1528C80.3654 29.4583 77.4506 29.0417 75.091 26.8889C73.009 24.9444 65.4444 17.8611 65.4444 17.8611L65.375 15.5Z" fill="black"/>
<path d="M65.375 19.1113C65.375 19.1113 72.5232 25.778 75.091 28.0002C77.4506 30.0835 79.3244 30.7086 84.46 31.6808C89.5957 32.5836 93.2739 33.1391 93.2739 33.1391V33.6252C93.2739 33.6252 88.6241 32.8613 84.46 32.1669C80.296 31.4724 77.5894 31.2641 75.091 29.1808C72.1762 26.8197 65.375 21.2641 65.375 21.2641V19.1113Z" fill="black"/>
<path d="M65.375 22.8613C65.375 22.8613 73.5642 29.3197 75.091 30.5002C76.6178 31.6113 78.6304 32.9308 84.46 33.8336C90.2897 34.6669 93.2739 35.0836 93.2739 35.0836V35.5697C93.2739 35.5697 87.9995 34.8058 84.46 34.3891C80.9206 33.9724 78.214 33.7641 75.091 31.6808C72.0374 29.6669 65.375 24.9447 65.375 24.9447V22.8613Z" fill="black"/>
<path d="M65.375 26.4722C65.375 26.4722 73.5642 31.9583 75.091 32.7916C76.6178 33.6249 78.4916 35.0833 84.46 35.8472C90.4285 36.6111 93.2739 36.9583 93.2739 36.9583V37.4444C93.2739 37.4444 88.3465 36.8888 84.46 36.4722C80.5736 36.0555 77.9364 35.4999 75.091 33.9027C72.2456 32.3055 65.375 28.3472 65.375 28.3472V26.4722Z" fill="black"/>
<path d="M65.375 30.1528C65.375 30.1528 72.5926 34.1112 75.091 35.2917C77.7976 36.6806 80.1572 37.3056 84.46 37.8612C88.6935 38.3473 93.2739 38.8334 93.2739 38.8334V39.2501C93.2739 39.2501 89.0405 38.7639 84.46 38.3473C79.949 37.9306 78.3528 37.7223 75.091 36.2639C72.1762 34.9445 65.375 31.8195 65.375 31.8195V30.1528Z" fill="black"/>
<path d="M65.3751 33.8335C65.3751 33.8335 71.0659 36.2641 75.0911 37.8613C79.0469 39.4585 82.0311 39.5974 84.4601 39.8057C85.5011 39.9446 93.2045 40.7085 93.2045 40.7085V41.1252C93.2045 41.1252 88.6241 40.7779 84.3907 40.3613C80.2267 40.0141 78.4223 39.8057 75.0217 38.6946C71.6211 37.5835 65.3057 35.3613 65.3057 35.3613L65.3751 33.8335Z" fill="black"/>
<path d="M65.375 37.5835C65.375 37.5835 71.1352 39.3891 75.091 40.4307C79.0468 41.4724 82.6556 41.8891 84.46 42.0279C86.2645 42.1668 93.2739 42.7224 93.2739 42.7224V43.1391C93.2739 43.1391 89.3181 42.8613 84.46 42.5141C80.5042 42.2363 77.3812 41.9585 75.091 41.4029C72.5232 40.8474 65.375 39.1113 65.375 39.1113V37.5835Z" fill="black"/>
<path d="M65.375 41.2637C65.375 41.2637 70.0942 42.097 75.091 42.9303C78.8386 43.5553 83.9048 43.972 84.46 43.972C85.0152 43.972 93.2739 44.597 93.2739 44.597V45.0137C93.2739 45.0137 87.9995 44.7359 84.46 44.5276C80.7818 44.3192 77.173 44.1109 75.091 43.9026C70.4412 43.4164 65.375 42.7915 65.375 42.7915V41.2637Z" fill="black"/>
<path d="M65.375 45.1528C65.375 45.1528 72.8008 45.4306 75.091 45.5001C77.3812 45.5695 93.2739 46.1945 93.2739 46.1945V46.6112H65.375V45.1528Z" fill="black"/>
<path d="M84.46 23.6944C77.7282 22.2361 76.2014 19.8056 75.091 18.2778C73.9806 16.75 65.4443 4.25 65.4443 4.25V7.09722C65.7913 7.51389 73.0784 17.0972 75.1604 19.7361C77.4506 22.7222 81.0594 23.4167 84.5294 24.1111C87.9994 24.875 93.3432 25.9167 93.3432 25.9167V25.5C93.2738 25.5 86.195 24.1111 84.46 23.6944Z" fill="black"/>
<path d="M84.46 25.7082C78.908 24.5971 76.6872 22.861 75.091 20.7777C73.4948 18.6249 65.4443 8.06934 65.4443 8.06934V10.7082C65.7913 11.1249 73.1478 19.8054 75.091 22.0971C77.3812 24.736 80.5736 25.4304 84.46 26.1249C88.3464 26.8193 93.2738 27.7916 93.2738 27.7916V27.3749C93.2738 27.3749 87.6524 26.3332 84.46 25.7082Z" fill="black"/>
<path d="M84.46 27.7223C78.6998 26.6112 77.52 25.7084 75.091 23.0001C73.5642 21.3334 65.722 12.0973 65.375 11.6807V14.1112C65.375 14.1112 72.662 21.889 75.0216 24.2501C78.0752 27.3057 80.99 27.514 84.3906 28.139C87.7913 28.764 93.2045 29.7362 93.2045 29.7362V29.3196C93.2739 29.3196 86.7503 28.2084 84.46 27.7223Z" fill="black"/>
<path d="M59.2677 19.6665H19.085V46.5415H59.2677V19.6665Z" fill="black"/>
<path d="M39.6275 23.4861H41.0155L39.9051 24.3888L40.3215 25.7777L39.2111 24.9444L38.1007 25.7777L38.5171 24.3888L37.4067 23.4861H38.7947L39.2111 22.0972L39.6275 23.4861Z" fill="#F9F9F9"/>
<path d="M39.6275 41.4029H41.0155L39.9051 42.2363L40.3215 43.5557L39.2111 42.7224L38.1007 43.5557L38.5171 42.2363L37.4067 41.4029H38.7947L39.2111 40.0835L39.6275 41.4029Z" fill="#F9F9F9"/>
<path d="M44.0692 40.2223H45.4572L44.3468 41.0556L44.7632 42.3751L43.6528 41.5417L42.5424 42.3751L42.9588 41.0556L41.8484 40.2223H43.2364L43.6528 38.9028L44.0692 40.2223Z" fill="#F9F9F9"/>
<path d="M44.0691 24.6666H45.4571L44.3467 25.4999L44.7631 26.8194L43.6527 25.9861L42.5423 26.8888L43.0281 25.4999L41.9177 24.6666H43.3057L43.7221 23.3472L44.0691 24.6666Z" fill="#F9F9F9"/>
<path d="M47.4003 28.0001H48.7883L47.6778 28.8334L48.0943 30.1529L46.9838 29.3196L45.8734 30.1529L46.2898 28.8334L45.1794 28.0001H46.5674L46.9838 26.6807L47.4003 28.0001Z" fill="#F9F9F9"/>
<path d="M47.4003 37.0279H48.7883L47.6778 37.8613L48.0943 39.1807L46.9838 38.3474L45.8734 39.1807L46.2898 37.8613L45.1794 37.0279H46.5674L46.9838 35.7085L47.4003 37.0279Z" fill="#F9F9F9"/>
<path d="M48.6496 32.4444H50.0376L48.9272 33.2778L49.3436 34.5972L48.2332 33.7639L47.1228 34.5972L47.5392 33.2778L46.3594 32.4444H47.7474L48.1638 31.125L48.6496 32.4444Z" fill="#F9F9F9"/>
<path d="M35.047 24.6665H36.435L35.3246 25.4998L35.741 26.8193L34.7 26.0554L33.5202 26.8887L33.9366 25.5693L32.8262 24.7359H34.2142L34.7 23.4165L35.047 24.6665Z" fill="#F9F9F9"/>
<path d="M31.8546 28.0001H33.2426L32.1322 28.8334L32.5486 30.1529L31.4382 29.3196L30.3278 30.1529L30.7442 28.8334L29.6338 28.0001H31.0218L31.4382 26.6807L31.8546 28.0001Z" fill="#F9F9F9"/>
<path d="M30.6749 32.4444H32.0629L30.9525 33.2778L31.3689 34.5972L30.2585 33.7639L29.1481 34.5972L29.5645 33.2778L28.4541 32.4444H29.8421L30.2585 31.125L30.6749 32.4444Z" fill="#F9F9F9"/>
<path d="M31.8546 37.0279H33.2426L32.1322 37.8613L32.5486 39.1807L31.4382 38.3474L30.3278 39.1807L30.7442 37.8613L29.6338 37.0279H31.0218L31.4382 35.7085L31.8546 37.0279Z" fill="#F9F9F9"/>
<path d="M35.1166 40.2916H36.5046L35.3942 41.1249L35.8106 42.4444L34.7002 41.6111L33.5898 42.4444L34.0062 41.1249L32.8958 40.2916H34.2838L34.7002 38.9722L35.1166 40.2916Z" fill="#F9F9F9"/>
<path d="M99.52 23.4863C99.52 23.2779 99.5894 23.2085 99.7976 23.2085H104.933C105.141 23.2085 105.211 23.2779 105.211 23.4863V24.3196C105.211 24.4585 105.141 24.5974 104.933 24.5974H101.116V27.0279H104.517C104.725 27.0279 104.794 27.0974 104.794 27.3057V28.1391C104.794 28.2779 104.725 28.4168 104.517 28.4168H101.116V31.1946H105.003C105.141 31.1946 105.28 31.264 105.28 31.4724V32.3057C105.28 32.4446 105.211 32.5835 105.003 32.5835H99.7976C99.5894 32.5835 99.52 32.5141 99.52 32.3057V23.4863ZM112.29 32.514H111.318C111.249 32.514 111.179 32.5141 111.11 32.4446C111.04 32.3752 111.04 32.3057 111.04 32.2363V31.7502C110.902 31.8196 110.763 31.9585 110.555 32.0279C110.346 32.0974 110.208 32.2363 109.999 32.3057L109.375 32.514C109.167 32.5835 108.958 32.5835 108.75 32.5835C108.264 32.5835 107.917 32.5141 107.64 32.3752C107.362 32.2363 107.154 32.0974 107.015 31.8196C106.876 31.6113 106.807 31.3335 106.738 30.9863C106.668 30.6391 106.668 30.3613 106.668 29.9446V25.8474C106.668 25.6391 106.738 25.5696 106.946 25.5696H107.987C108.126 25.5696 108.264 25.6391 108.264 25.8474V29.7363C108.264 29.9446 108.264 30.1529 108.334 30.2918C108.334 30.4307 108.403 30.5696 108.473 30.7085C108.542 30.8474 108.681 30.9168 108.75 30.9863C108.82 31.0557 109.028 31.0557 109.236 31.0557C109.375 31.0557 109.514 31.0557 109.722 30.9863C109.93 30.9168 110.069 30.8474 110.277 30.7779C110.485 30.7085 110.624 30.6391 110.763 30.5696C110.902 30.5002 111.04 30.4307 111.11 30.3613V25.7085C111.11 25.6391 111.11 25.5696 111.179 25.5002C111.249 25.4307 111.318 25.4307 111.387 25.4307H112.359C112.567 25.4307 112.637 25.5002 112.637 25.7085V32.0279C112.567 32.3752 112.498 32.514 112.29 32.514ZM115.829 32.2363C115.829 32.4446 115.76 32.514 115.551 32.514H114.51C114.302 32.514 114.233 32.4446 114.233 32.2363V25.9168C114.233 25.7085 114.302 25.6391 114.51 25.6391H115.482C115.69 25.6391 115.76 25.7085 115.76 25.9168V26.5418C115.829 26.4724 115.968 26.3335 116.176 26.2641C116.315 26.1252 116.523 26.0557 116.731 25.9863C116.939 25.9168 117.148 25.8474 117.286 25.7085C117.495 25.6391 117.633 25.5696 117.842 25.5696H118.05C118.119 25.5696 118.119 25.6391 118.189 25.7779L118.258 26.6807V26.8891C118.258 26.9585 118.189 26.9585 117.98 27.0279C117.772 27.0974 117.564 27.0974 117.356 27.1668C117.148 27.2363 116.939 27.3057 116.731 27.3057C116.523 27.3752 116.315 27.4446 116.176 27.5141C115.968 27.5835 115.829 27.6529 115.76 27.6529V32.2363H115.829ZM125.059 28.9724C125.059 29.3891 125.059 29.8057 124.99 30.2224C124.92 30.6391 124.782 31.0557 124.573 31.4029C124.365 31.7502 124.088 32.0279 123.671 32.3057C123.255 32.5141 122.7 32.6529 122.006 32.6529C121.312 32.6529 120.756 32.5141 120.34 32.3057C119.924 32.0974 119.646 31.8196 119.438 31.4029C119.23 31.0557 119.091 30.6391 119.091 30.2224C119.021 29.8057 119.021 29.3891 119.021 28.9724C119.021 28.6252 119.021 28.2779 119.091 27.8613C119.16 27.4446 119.299 27.0974 119.507 26.7502C119.715 26.4029 119.993 26.1252 120.409 25.8474C120.826 25.6391 121.312 25.5002 122.006 25.5002C122.7 25.5002 123.255 25.5696 123.602 25.7779C124.018 25.9863 124.296 26.2641 124.504 26.6113C124.712 26.9585 124.851 27.3057 124.92 27.7224C124.99 28.1391 125.059 28.5557 125.059 28.9724ZM123.463 29.0418C123.463 28.6946 123.463 28.3474 123.394 28.0696C123.324 27.7918 123.255 27.5835 123.185 27.3752C123.047 27.1668 122.908 27.0279 122.7 26.9585C122.491 26.8891 122.283 26.8196 121.936 26.8196C121.659 26.8196 121.381 26.8891 121.242 26.9585C121.103 27.0279 120.895 27.1668 120.826 27.3752C120.687 27.5835 120.618 27.7918 120.618 28.0696C120.548 28.3474 120.548 28.6946 120.548 29.0418C120.548 29.3891 120.548 29.7363 120.618 30.0141C120.687 30.2918 120.756 30.5002 120.826 30.7085C120.895 30.9168 121.103 31.0557 121.242 31.1252C121.381 31.1946 121.659 31.2641 121.936 31.2641C122.283 31.2641 122.491 31.1946 122.7 31.1252C122.908 31.0557 123.047 30.9168 123.185 30.7085C123.324 30.5002 123.394 30.2918 123.394 30.0141C123.463 29.7363 123.463 29.4585 123.463 29.0418ZM132.416 29.0418C132.416 29.5974 132.346 30.0835 132.277 30.5696C132.208 30.9863 132.069 31.4029 131.861 31.6807C131.652 31.9585 131.375 32.2363 131.028 32.3752C130.681 32.5141 130.195 32.5835 129.64 32.5835C129.432 32.5835 129.154 32.5835 128.807 32.514C128.529 32.4446 128.182 32.3752 127.835 32.3057V34.7363C127.835 34.8057 127.835 34.8752 127.766 34.9446C127.696 35.014 127.627 35.0141 127.558 35.0141H126.586C126.447 35.0141 126.378 35.014 126.378 34.9446C126.378 34.8752 126.308 34.8057 126.308 34.7363V25.9168C126.308 25.7085 126.378 25.6391 126.586 25.6391H127.558C127.627 25.6391 127.696 25.6391 127.766 25.7085C127.835 25.7779 127.835 25.8474 127.835 25.9168V26.3335H127.905C128.043 26.2641 128.182 26.1946 128.321 26.0557C128.46 25.9863 128.668 25.8474 128.876 25.7779L129.501 25.5696C129.709 25.5002 129.917 25.5002 130.125 25.5002C130.611 25.5002 130.958 25.5696 131.236 25.7779C131.514 25.9168 131.791 26.1946 131.93 26.4724C132.069 26.7502 132.208 27.1668 132.277 27.5835C132.416 28.0002 132.416 28.4863 132.416 29.0418ZM130.82 29.0418C130.82 28.6252 130.819 28.2085 130.75 28.0002C130.681 27.7918 130.611 27.5141 130.542 27.3752C130.473 27.2363 130.334 27.0974 130.195 27.0974C130.056 27.0279 129.917 27.0279 129.709 27.0279C129.57 27.0279 129.431 27.0279 129.223 27.0974C129.015 27.1668 128.876 27.1668 128.668 27.2363C128.529 27.3057 128.321 27.3752 128.182 27.4446L127.766 27.6529V31.1252C128.113 31.1946 128.39 31.2641 128.599 31.3335C128.807 31.4029 129.084 31.4029 129.362 31.4029C129.64 31.4029 129.848 31.3335 129.987 31.2641C130.126 31.1946 130.264 31.0557 130.403 30.9168C130.542 30.7085 130.611 30.5002 130.611 30.2224C130.819 29.8057 130.82 29.4585 130.82 29.0418ZM135.122 29.4585C135.122 29.8057 135.192 30.0835 135.261 30.3613C135.331 30.5696 135.469 30.7779 135.608 30.9168C135.747 31.0557 135.886 31.1252 136.094 31.1946C136.302 31.2641 136.51 31.2641 136.857 31.2641C137.135 31.2641 137.413 31.2641 137.76 31.1946C138.107 31.1252 138.384 31.1252 138.662 31.1252H138.939C139.009 31.1252 139.009 31.1946 139.078 31.3335L139.148 31.8196V32.0974C139.148 32.1668 139.078 32.2363 138.939 32.3057C138.801 32.3752 138.662 32.4446 138.454 32.4446C138.245 32.4446 138.107 32.5141 137.898 32.5835C137.69 32.6529 137.482 32.6529 137.274 32.6529H136.719C136.025 32.6529 135.539 32.5835 135.122 32.3752C134.706 32.1668 134.428 31.8891 134.22 31.6113C134.012 31.2641 133.873 30.9168 133.804 30.5002C133.734 30.0835 133.665 29.6668 133.665 29.1807C133.665 28.8335 133.665 28.4863 133.734 28.0696C133.804 27.6529 133.943 27.2363 134.151 26.8891C134.359 26.5418 134.637 26.1946 135.053 25.9863C135.469 25.7085 135.955 25.6391 136.649 25.6391C137.274 25.6391 137.76 25.7085 138.176 25.9168C138.592 26.1252 138.87 26.3335 139.078 26.6113C139.286 26.8891 139.425 27.2363 139.495 27.5835C139.564 27.9307 139.633 28.3474 139.633 28.6946C139.633 28.9724 139.633 29.1807 139.495 29.3196C139.356 29.4585 139.217 29.5279 138.939 29.5279H135.122V29.4585ZM136.51 26.7502C136.233 26.7502 136.025 26.8196 135.886 26.8891C135.747 26.9585 135.608 27.0974 135.469 27.2363C135.331 27.3752 135.261 27.5835 135.261 27.7918C135.192 28.0002 135.192 28.2085 135.192 28.4863H137.968C137.968 28.2779 137.968 28.0696 137.898 27.8613C137.829 27.6529 137.76 27.5141 137.69 27.3057C137.621 27.0974 137.482 27.0279 137.274 26.9585C136.996 26.8196 136.788 26.7502 136.51 26.7502ZM145.047 31.6807C144.7 31.9585 144.283 32.1668 143.867 32.3057C143.45 32.4446 142.965 32.5835 142.479 32.5835C142.132 32.5835 141.785 32.5141 141.577 32.4446C141.299 32.3752 141.16 32.2363 141.021 32.0279C140.883 31.8891 140.744 31.6807 140.744 31.4029C140.674 31.1946 140.674 30.9168 140.674 30.5696C140.674 29.7363 140.883 29.1807 141.299 28.7641C141.715 28.4168 142.409 28.2085 143.242 28.2085H145.047V27.8613C145.047 27.6529 145.047 27.5141 144.977 27.3057C144.908 27.1668 144.838 27.0279 144.769 26.9585L144.353 26.7502C144.144 26.6807 143.936 26.6807 143.659 26.6807H142.756C142.618 26.6807 142.409 26.6807 142.271 26.7502C142.132 26.7502 141.924 26.7502 141.785 26.8196H141.507C141.438 26.8196 141.438 26.7502 141.368 26.6113L141.23 26.1252V25.9168C141.299 25.8474 141.368 25.7779 141.507 25.7085C141.646 25.6391 141.854 25.6391 142.062 25.5696C142.271 25.5002 142.479 25.5002 142.687 25.5002C142.895 25.5002 143.103 25.4307 143.312 25.4307H143.867C144.491 25.4307 144.977 25.5002 145.324 25.6391C145.671 25.7779 145.949 25.9168 146.157 26.1252C146.365 26.3335 146.435 26.6113 146.504 26.9585C146.573 27.3057 146.573 27.6529 146.573 28.0002V31.0557C146.573 31.1252 146.643 31.1946 146.643 31.2641C146.643 31.3335 146.712 31.3335 146.782 31.3335C146.851 31.3335 146.92 31.3335 147.059 31.4029C147.129 31.4029 147.198 31.4029 147.267 31.4724C147.337 31.4724 147.337 31.5418 147.337 31.6113V32.1668C147.337 32.3057 147.198 32.4446 146.99 32.4446C146.851 32.4446 146.782 32.4446 146.643 32.514H146.296C145.949 32.514 145.741 32.4446 145.532 32.3057C145.255 32.2363 145.116 32.0279 145.047 31.6807ZM144.977 29.3891H143.312C142.965 29.3891 142.687 29.4585 142.479 29.6668C142.271 29.8057 142.201 30.1529 142.201 30.5696C142.201 30.8474 142.271 31.0557 142.409 31.1946C142.548 31.3335 142.756 31.4029 143.103 31.4029C143.242 31.4029 143.381 31.4029 143.589 31.3335C143.797 31.2641 143.936 31.2641 144.144 31.1946C144.353 31.1252 144.491 31.0557 144.63 30.9863C144.769 30.9168 144.977 30.8474 145.047 30.7779V29.3891H144.977ZM154.138 32.4446C154.069 32.5141 153.999 32.514 153.93 32.514H152.889C152.681 32.514 152.611 32.4446 152.611 32.2363V28.3474C152.611 27.9307 152.542 27.5835 152.403 27.3752C152.264 27.0974 151.987 27.0279 151.57 27.0279C151.431 27.0279 151.293 27.0279 151.084 27.0974C150.876 27.1668 150.737 27.2363 150.529 27.3057C150.321 27.3752 150.182 27.4446 150.043 27.5141C149.905 27.5835 149.766 27.6529 149.696 27.7224V32.3752C149.696 32.5835 149.627 32.6529 149.419 32.6529H148.447C148.239 32.6529 148.17 32.5835 148.17 32.3752V26.0557C148.17 25.8474 148.239 25.7779 148.447 25.7779H149.419C149.627 25.7779 149.696 25.8474 149.696 26.0557V26.4724C149.835 26.4029 149.974 26.2641 150.182 26.1946C150.39 26.1252 150.529 25.9863 150.737 25.9168L151.362 25.7085C151.57 25.6391 151.778 25.6391 151.987 25.6391C152.472 25.6391 152.819 25.7085 153.097 25.8474C153.375 25.9863 153.583 26.1946 153.722 26.4029C153.86 26.6113 153.93 26.9585 153.999 27.2363C154.069 27.5835 154.069 27.8613 154.069 28.2779V32.3057C154.138 32.3057 154.138 32.3752 154.138 32.4446Z" fill="black"/>
<path d="M99.3809 42.028C99.3809 41.403 99.4503 40.8474 99.5197 40.2919C99.5891 39.7363 99.7973 39.1808 100.075 38.7641C100.352 38.3474 100.699 37.9308 101.185 37.653C101.671 37.3752 102.296 37.2363 103.128 37.2363H103.684C103.892 37.2363 104.1 37.3058 104.378 37.3058C104.586 37.3058 104.863 37.3752 105.072 37.4447L105.696 37.653C105.835 37.7224 105.904 37.7224 105.904 37.7919C105.904 37.8613 105.974 37.9308 105.974 38.0697L105.835 38.6252C105.835 38.6947 105.766 38.7641 105.766 38.8335C105.696 38.903 105.627 38.903 105.488 38.8335C105.141 38.7641 104.794 38.7641 104.378 38.6947C103.961 38.6252 103.614 38.6252 103.267 38.6252C102.781 38.6252 102.434 38.6947 102.157 38.903C101.879 39.1113 101.671 39.3197 101.463 39.5974C101.324 39.8752 101.185 40.2919 101.185 40.6391C101.185 40.9863 101.116 41.4724 101.116 41.9585C101.116 42.4447 101.116 42.8613 101.185 43.2085C101.255 43.6252 101.324 43.9724 101.532 44.2502C101.671 44.528 101.879 44.8058 102.226 44.9447C102.504 45.0835 102.851 45.2224 103.337 45.2224C103.753 45.2224 104.1 45.2224 104.447 45.153C104.794 45.0836 105.141 45.0835 105.557 45.0141H105.835C105.904 45.0835 105.904 45.0835 105.974 45.2224L106.113 45.778C106.182 45.9863 106.113 46.1252 105.904 46.1947C105.766 46.2641 105.557 46.3335 105.28 46.403C105.072 46.4724 104.794 46.4724 104.586 46.5419C104.378 46.6113 104.1 46.6113 103.892 46.6113H103.267C102.504 46.6113 101.879 46.4724 101.393 46.1947C100.908 45.9169 100.491 45.5697 100.283 45.153C100.005 44.7363 99.7973 44.2502 99.7279 43.6947C99.4503 43.2085 99.3809 42.653 99.3809 42.028ZM113.053 43.0697C113.053 43.4863 113.053 43.903 112.983 44.3197C112.914 44.7363 112.775 45.153 112.567 45.5002C112.359 45.8474 112.081 46.1252 111.665 46.403C111.248 46.6113 110.693 46.7502 109.999 46.7502C109.305 46.7502 108.75 46.6113 108.333 46.403C107.917 46.1947 107.639 45.9169 107.431 45.5002C107.223 45.153 107.084 44.7363 107.084 44.3197C107.015 43.903 107.015 43.4863 107.015 43.0697C107.015 42.7224 107.015 42.3752 107.084 41.9585C107.154 41.5419 107.292 41.1947 107.501 40.8474C107.709 40.5002 107.986 40.2224 108.403 39.9447C108.819 39.7363 109.305 39.5974 109.999 39.5974C110.693 39.5974 111.248 39.6669 111.595 39.8752C112.012 40.0835 112.289 40.3613 112.497 40.7086C112.706 41.0558 112.844 41.403 112.914 41.8197C112.983 42.2363 113.053 42.653 113.053 43.0697ZM111.456 43.1391C111.456 42.7919 111.456 42.4447 111.387 42.1669C111.318 41.8891 111.248 41.6808 111.179 41.4724C111.04 41.2641 110.901 41.1252 110.693 41.0558C110.485 40.9863 110.277 40.9169 109.93 40.9169C109.652 40.9169 109.374 40.9863 109.236 41.0558C109.097 41.1252 108.889 41.2641 108.819 41.4724C108.68 41.6808 108.611 41.8891 108.611 42.1669C108.542 42.4447 108.542 42.7919 108.542 43.1391C108.542 43.4863 108.542 43.8335 108.611 44.1113C108.68 44.3891 108.75 44.5974 108.819 44.8058C108.889 45.0141 109.097 45.153 109.236 45.2224C109.374 45.2919 109.652 45.3613 109.93 45.3613C110.277 45.3613 110.485 45.2919 110.693 45.2224C110.901 45.153 111.04 45.0141 111.179 44.8058C111.318 44.5974 111.387 44.3891 111.387 44.1113C111.387 43.8335 111.456 43.5558 111.456 43.1391ZM124.365 46.5419C124.365 46.6113 124.296 46.6113 124.157 46.6113H123.185C122.977 46.6113 122.908 46.5419 122.908 46.3335V42.3752C122.908 41.8891 122.838 41.4724 122.699 41.3335C122.561 41.1252 122.283 41.0558 121.936 41.0558C121.797 41.0558 121.658 41.0558 121.52 41.1252C121.381 41.1947 121.173 41.1947 121.034 41.2641C120.895 41.3335 120.687 41.403 120.548 41.4724L120.132 41.6808V46.3335C120.132 46.403 120.132 46.4724 120.062 46.5419C119.993 46.6113 119.923 46.6113 119.854 46.6113H118.813C118.674 46.6113 118.605 46.5419 118.605 46.3335V42.3058C118.605 41.8891 118.535 41.5419 118.397 41.3335C118.258 41.1252 118.05 41.0558 117.703 41.0558C117.564 41.0558 117.425 41.0558 117.286 41.1252C117.147 41.1947 117.009 41.1947 116.8 41.2641C116.662 41.3335 116.453 41.403 116.315 41.4724L115.898 41.6808V46.3335C115.898 46.5419 115.829 46.6113 115.621 46.6113H114.649C114.51 46.6113 114.371 46.5419 114.371 46.3335V40.0141C114.371 39.8058 114.441 39.7363 114.649 39.7363H115.621C115.829 39.7363 115.898 39.8058 115.898 40.0141V40.4308C116.037 40.3613 116.176 40.2224 116.315 40.153C116.453 40.0835 116.662 39.9447 116.8 39.8752C116.939 39.8058 117.147 39.7363 117.356 39.6669C117.564 39.5974 117.703 39.5974 117.911 39.5974C118.327 39.5974 118.674 39.6669 119.021 39.8058C119.368 39.9447 119.646 40.2224 119.854 40.5697C120.201 40.2919 120.617 40.0835 121.034 39.8752C121.45 39.6669 121.867 39.5974 122.352 39.5974C122.838 39.5974 123.185 39.6669 123.463 39.8058C123.74 39.9447 123.949 40.153 124.087 40.3613C124.226 40.5697 124.296 40.8474 124.365 41.1947C124.434 41.5419 124.434 41.8197 124.434 42.1669V46.3335C124.365 46.403 124.365 46.4724 124.365 46.5419ZM135.816 46.5419C135.816 46.6113 135.747 46.6113 135.608 46.6113H134.636C134.428 46.6113 134.359 46.5419 134.359 46.3335V42.3752C134.359 41.8891 134.289 41.4724 134.15 41.3335C134.012 41.1252 133.734 41.0558 133.387 41.0558C133.248 41.0558 133.109 41.0558 132.971 41.1252C132.832 41.1947 132.624 41.1947 132.485 41.2641C132.346 41.3335 132.138 41.403 131.999 41.4724L131.583 41.6808V46.3335C131.583 46.403 131.583 46.4724 131.513 46.5419C131.444 46.6113 131.374 46.6113 131.305 46.6113H130.264C130.125 46.6113 130.056 46.5419 130.056 46.3335V42.3058C130.056 41.8891 129.986 41.5419 129.848 41.3335C129.709 41.1252 129.501 41.0558 129.154 41.0558C129.015 41.0558 128.876 41.0558 128.737 41.1252C128.598 41.1947 128.46 41.1947 128.251 41.2641C128.043 41.3335 127.904 41.403 127.766 41.4724L127.349 41.6808V46.3335C127.349 46.5419 127.28 46.6113 127.072 46.6113H126.1C125.961 46.6113 125.822 46.5419 125.822 46.3335V40.0141C125.822 39.8058 125.892 39.7363 126.1 39.7363H127.072C127.28 39.7363 127.349 39.8058 127.349 40.0141V40.4308C127.488 40.3613 127.627 40.2224 127.766 40.153C127.904 40.0835 128.113 39.9447 128.251 39.8752C128.46 39.8058 128.598 39.7363 128.807 39.6669C129.015 39.5974 129.154 39.5974 129.362 39.5974C129.778 39.5974 130.125 39.6669 130.472 39.8058C130.819 39.9447 131.097 40.2224 131.305 40.5697C131.652 40.2919 132.068 40.0835 132.485 39.8752C132.901 39.6669 133.318 39.5974 133.803 39.5974C134.289 39.5974 134.636 39.6669 134.914 39.8058C135.191 39.9447 135.4 40.153 135.538 40.3613C135.677 40.5697 135.747 40.8474 135.816 41.1947C135.885 41.5419 135.885 41.8197 135.885 42.1669V46.3335C135.885 46.403 135.816 46.4724 135.816 46.5419ZM139.147 37.9308V38.278C139.147 38.3474 139.078 38.4863 139.008 38.5558C138.939 38.6252 138.87 38.6947 138.731 38.7641C138.592 38.8335 138.453 38.8335 138.314 38.8335C138.106 38.8335 137.967 38.8335 137.898 38.7641C137.759 38.6947 137.69 38.6252 137.62 38.5558C137.551 38.4863 137.551 38.4169 137.482 38.278V38.0002C137.482 37.7919 137.551 37.5835 137.62 37.4447C137.759 37.3058 137.967 37.2363 138.314 37.2363C138.661 37.2363 138.87 37.3058 139.008 37.4447C139.078 37.5141 139.147 37.7224 139.147 37.9308ZM139.078 46.3335C139.078 46.403 139.078 46.4724 139.008 46.5419C139.008 46.6113 138.939 46.6113 138.8 46.6113H137.829C137.62 46.6113 137.551 46.5419 137.551 46.3335V40.0141C137.551 39.8058 137.62 39.7363 137.829 39.7363H138.8C138.87 39.7363 138.939 39.7363 139.008 39.8058C139.008 39.8752 139.078 39.9447 139.078 40.0141V46.3335ZM145.879 44.528C145.879 44.9447 145.81 45.2919 145.671 45.5697C145.532 45.8474 145.324 46.0558 145.046 46.2641C144.769 46.403 144.491 46.5419 144.144 46.6113C143.797 46.6808 143.45 46.7502 143.103 46.7502C142.756 46.7502 142.34 46.7502 141.993 46.6808C141.576 46.6113 141.229 46.5419 140.952 46.4724C140.813 46.403 140.743 46.3336 140.674 46.2641C140.605 46.1947 140.605 46.1252 140.674 45.9863L140.743 45.5002C140.743 45.3613 140.813 45.2919 140.882 45.2919H141.16C141.299 45.2919 141.507 45.3613 141.646 45.3613C141.854 45.3613 141.993 45.3613 142.201 45.4308C142.409 45.4308 142.548 45.4308 142.687 45.5002H143.103C143.519 45.5002 143.866 45.4308 144.075 45.2919C144.283 45.153 144.352 44.9447 144.352 44.6669C144.352 44.528 144.352 44.3891 144.283 44.2502C144.213 44.1113 144.213 44.0419 144.075 43.9724C143.936 43.903 143.866 43.8335 143.728 43.8335C143.589 43.7641 143.381 43.7641 143.172 43.6947C142.825 43.6252 142.478 43.5558 142.201 43.4863C141.923 43.4169 141.646 43.278 141.368 43.1391C141.16 43.0002 140.952 42.7919 140.813 42.5835C140.674 42.3752 140.605 42.028 140.605 41.6808C140.605 40.9863 140.813 40.5002 141.299 40.0835C141.784 39.7363 142.409 39.528 143.172 39.528H143.658C143.866 39.528 144.005 39.528 144.213 39.5974C144.422 39.5974 144.56 39.6669 144.769 39.6669C144.977 39.6669 145.116 39.7363 145.254 39.8058C145.463 39.8752 145.601 40.0141 145.532 40.2224L145.393 40.7086C145.393 40.778 145.324 40.8474 145.254 40.9169H144.977C144.699 40.8474 144.352 40.8474 144.005 40.778C143.658 40.778 143.381 40.7086 143.103 40.7086C142.687 40.7086 142.34 40.778 142.201 40.9169C142.062 41.0558 141.993 41.2641 141.993 41.5419C141.993 41.8197 142.062 41.9585 142.27 42.0974C142.478 42.1669 142.756 42.2363 143.172 42.3058C143.519 42.3752 143.797 42.4447 144.144 42.5141C144.491 42.5835 144.699 42.7224 144.977 42.8613C145.185 43.0002 145.393 43.2085 145.532 43.4863C145.81 43.7641 145.879 44.1113 145.879 44.528ZM152.264 44.528C152.264 44.9447 152.194 45.2919 152.056 45.5697C151.917 45.8474 151.709 46.0558 151.431 46.2641C151.153 46.403 150.876 46.5419 150.529 46.6113C150.182 46.6808 149.835 46.7502 149.488 46.7502C149.141 46.7502 148.724 46.7502 148.377 46.6808C147.961 46.6113 147.614 46.5419 147.336 46.4724C147.198 46.403 147.128 46.3336 147.059 46.2641C146.989 46.1947 146.989 46.1252 147.059 45.9863L147.128 45.5002C147.128 45.3613 147.198 45.2919 147.267 45.2919H147.545C147.683 45.2919 147.892 45.3613 148.03 45.3613C148.239 45.3613 148.377 45.3613 148.586 45.4308C148.794 45.4308 148.933 45.4308 149.071 45.5002H149.488C149.904 45.5002 150.251 45.4308 150.459 45.2919C150.668 45.153 150.737 44.9447 150.737 44.6669C150.737 44.528 150.737 44.3891 150.668 44.2502C150.598 44.1113 150.598 44.0419 150.459 43.9724C150.321 43.903 150.251 43.8335 150.112 43.8335C149.974 43.7641 149.765 43.7641 149.557 43.6947C149.21 43.6252 148.863 43.5558 148.586 43.4863C148.308 43.4169 148.03 43.278 147.753 43.1391C147.545 43.0002 147.336 42.7919 147.198 42.5835C147.059 42.3752 146.989 42.028 146.989 41.6808C146.989 40.9863 147.198 40.5002 147.683 40.0835C148.169 39.7363 148.794 39.528 149.557 39.528H150.043C150.251 39.528 150.39 39.528 150.598 39.5974C150.806 39.5974 150.945 39.6669 151.153 39.6669C151.362 39.6669 151.5 39.7363 151.639 39.8058C151.847 39.8752 151.986 40.0141 151.917 40.2224L151.778 40.7086C151.778 40.778 151.709 40.8474 151.639 40.9169H151.362C151.084 40.8474 150.737 40.8474 150.39 40.778C150.043 40.778 149.765 40.7086 149.488 40.7086C149.071 40.7086 148.724 40.778 148.586 40.9169C148.447 41.0558 148.377 41.2641 148.377 41.5419C148.377 41.8197 148.447 41.9585 148.655 42.0974C148.863 42.1669 149.141 42.2363 149.557 42.3058C149.904 42.3752 150.182 42.4447 150.529 42.5141C150.876 42.5835 151.084 42.7224 151.362 42.8613C151.57 43.0002 151.778 43.2085 151.917 43.4863C152.194 43.7641 152.264 44.1113 152.264 44.528ZM155.387 37.9308V38.278C155.387 38.3474 155.317 38.4863 155.248 38.5558C155.179 38.6252 155.109 38.6947 154.97 38.7641C154.832 38.8335 154.693 38.8335 154.554 38.8335C154.346 38.8335 154.207 38.8335 154.138 38.7641C153.999 38.6947 153.929 38.6252 153.86 38.5558C153.791 38.4863 153.791 38.4169 153.721 38.278V38.0002C153.721 37.7919 153.791 37.5835 153.86 37.4447C153.999 37.3058 154.207 37.2363 154.554 37.2363C154.901 37.2363 155.109 37.3058 155.248 37.4447C155.317 37.5141 155.387 37.7224 155.387 37.9308ZM155.317 46.3335C155.317 46.403 155.317 46.4724 155.248 46.5419C155.248 46.6113 155.179 46.6113 155.04 46.6113H154.068C153.86 46.6113 153.791 46.5419 153.791 46.3335V40.0141C153.791 39.8058 153.86 39.7363 154.068 39.7363H155.04C155.109 39.7363 155.179 39.7363 155.248 39.8058C155.248 39.8752 155.317 39.9447 155.317 40.0141V46.3335ZM162.951 43.0697C162.951 43.4863 162.951 43.903 162.882 44.3197C162.813 44.7363 162.674 45.153 162.466 45.5002C162.257 45.8474 161.98 46.1252 161.563 46.403C161.147 46.6113 160.592 46.7502 159.898 46.7502C159.204 46.7502 158.649 46.6113 158.232 46.403C157.816 46.1947 157.538 45.9169 157.33 45.5002C157.122 45.153 156.983 44.7363 156.983 44.3197C156.914 43.903 156.914 43.4863 156.914 43.0697C156.914 42.7224 156.914 42.3752 156.983 41.9585C157.052 41.5419 157.191 41.1947 157.399 40.8474C157.608 40.5002 157.885 40.2224 158.302 39.9447C158.718 39.7363 159.204 39.5974 159.898 39.5974C160.592 39.5974 161.147 39.6669 161.494 39.8752C161.91 40.0835 162.188 40.3613 162.396 40.7086C162.604 41.0558 162.743 41.403 162.813 41.8197C162.882 42.2363 162.951 42.653 162.951 43.0697ZM161.355 43.1391C161.355 42.7919 161.355 42.4447 161.286 42.1669C161.216 41.8891 161.147 41.6808 161.078 41.4724C160.939 41.2641 160.8 41.1252 160.592 41.0558C160.384 40.9863 160.175 40.9169 159.828 40.9169C159.551 40.9169 159.273 40.9863 159.134 41.0558C158.996 41.1252 158.787 41.2641 158.718 41.4724C158.579 41.6808 158.51 41.8891 158.51 42.1669C158.44 42.4447 158.44 42.7919 158.44 43.1391C158.44 43.4863 158.44 43.8335 158.51 44.1113C158.579 44.3891 158.649 44.5974 158.718 44.8058C158.787 45.0141 158.996 45.153 159.134 45.2224C159.273 45.2919 159.551 45.3613 159.828 45.3613C160.175 45.3613 160.384 45.2919 160.592 45.2224C160.8 45.153 160.939 45.0141 161.078 44.8058C161.216 44.5974 161.286 44.3891 161.286 44.1113C161.286 43.8335 161.355 43.5558 161.355 43.1391ZM170.169 46.5419C170.1 46.6113 170.03 46.6113 169.961 46.6113H168.92C168.712 46.6113 168.642 46.5419 168.642 46.3335V42.4447C168.642 42.028 168.573 41.6808 168.434 41.4724C168.295 41.1947 168.018 41.1252 167.601 41.1252C167.462 41.1252 167.324 41.1252 167.115 41.1947C166.907 41.2641 166.768 41.3335 166.56 41.403C166.352 41.4724 166.213 41.5419 166.074 41.6113C165.936 41.6808 165.797 41.7502 165.727 41.8197V46.3335C165.727 46.5419 165.658 46.6113 165.45 46.6113H164.478C164.27 46.6113 164.201 46.5419 164.201 46.3335V40.0141C164.201 39.8058 164.27 39.7363 164.478 39.7363H165.45C165.658 39.7363 165.727 39.8058 165.727 40.0141V40.4308C165.866 40.3613 166.005 40.2224 166.213 40.153C166.421 40.0835 166.56 39.9447 166.768 39.8752L167.393 39.6669C167.601 39.5974 167.809 39.5974 168.018 39.5974C168.503 39.5974 168.85 39.6669 169.128 39.8058C169.406 39.9447 169.614 40.153 169.753 40.3613C169.891 40.5697 169.961 40.9169 170.03 41.1947C170.1 41.5419 170.1 41.8197 170.1 42.2363V46.3335C170.238 46.403 170.169 46.4724 170.169 46.5419Z" fill="black"/>
<path d="M176.415 19.9443H178.705V46.8193H176.415V19.9443Z" fill="black"/>
</g>
<defs>
<clipPath id="clip0_87_150">
<rect width="201.26" height="50" fill="white" transform="translate(0 0.5)"/>
</clipPath>
</defs>
</svg>
