<svg width="162" height="51" viewBox="0 0 162 51" fill="none" xmlns="http://www.w3.org/2000/svg">
<g opacity="0.5">
<path fill-rule="evenodd" clip-rule="evenodd" d="M41.1477 46.9918H4.06152V4.00781H41.1477V46.9918ZM80.1585 46.9918H43.5875V4.00781H80.1585V46.9918ZM119.196 46.9918H82.6254V4.00781H119.196V46.9918ZM158.099 46.9918H121.474V4.00781H158.099V46.9918Z" fill="black"/>
<path fill-rule="evenodd" clip-rule="evenodd" d="M150.817 34.4462C149.025 35.4739 147.523 36.2113 146.311 36.6072C145.1 37.003 143.885 37.1874 142.649 37.1874C140.857 37.1874 139.117 36.7645 137.43 35.924C135.771 35.0781 134.454 33.7628 133.478 31.995C132.529 30.2028 132.054 27.8846 132.003 24.9861H141.7C143.861 24.9861 146.046 24.9347 148.206 24.7746C149.34 24.6959 150.657 24.5388 152.107 24.2758C152.186 23.457 152.213 22.771 152.213 22.2178C152.213 19.9782 151.79 17.9771 150.947 16.2093C150.104 14.4442 148.787 13.0477 146.97 12.0202C145.151 10.9925 143.123 10.4639 140.881 10.4639C139.038 10.4639 137.324 10.8081 135.744 11.467C134.532 11.9416 133.32 12.6005 132.109 13.4436C130.897 14.2598 130 14.9974 129.395 15.6561C128.603 16.5265 127.89 17.8957 127.259 19.7667C126.627 21.6132 126.31 23.6955 126.31 26.0138C126.31 28.9664 126.917 31.5206 128.102 33.7357C129.289 35.9239 130.948 37.5833 133.082 38.6894C135.215 39.7713 137.615 40.3245 140.25 40.3245C141.594 40.3245 142.858 40.1917 144.069 39.9015C145.281 39.6114 146.363 39.2426 147.312 38.8225C147.943 38.5566 148.944 37.9791 150.343 37.109L151.289 34.9478L150.817 34.4462ZM134.137 14.9456C135.508 13.2837 137.352 12.4404 139.645 12.4404C141.806 12.4404 143.516 13.2052 144.809 14.7343C146.1 16.2634 146.759 18.636 146.759 21.8761C146.759 22.1391 146.759 22.535 146.732 23.0366C145.861 23.1152 144.124 23.1668 141.434 23.1668C140.304 23.1668 138.222 23.1152 135.215 23.0366C133.638 22.9308 132.556 22.8522 132.003 22.798C132.027 19.2135 132.74 16.5779 134.137 14.9456ZM112.478 35.9753L111.291 37.9792C109.922 38.7438 108.55 39.2697 107.209 39.6385C105.864 39.9802 104.335 40.1401 102.649 40.1401C98.46 40.1401 95.1121 38.8738 92.6369 36.3441C90.1321 33.8144 88.8959 30.3085 88.8959 25.8809C88.8959 23.5356 89.2373 21.5073 89.8961 19.7667C90.5794 18.0287 91.3979 16.6836 92.3741 15.7618C93.0301 15.1031 94.2962 14.2327 96.1396 13.1807C97.9858 12.126 99.2762 11.4672 100.014 11.1498C101.358 10.5696 102.993 10.2822 104.888 10.2822C106.68 10.2822 108.287 10.4639 109.738 10.8352C110.659 11.0712 111.554 11.467 112.478 12.0202C112.24 13.5495 112.056 14.7343 111.95 15.5261C111.844 16.2907 111.714 17.7386 111.554 19.8209H109.817C109.684 17.8959 109.578 16.7109 109.448 16.2364C109.369 15.9462 109.209 15.6834 108.919 15.4474C108.209 14.8917 107.311 14.4171 106.181 14.0238C105.072 13.628 103.836 13.4165 102.516 13.4165C100.857 13.4165 99.4091 13.7582 98.1945 14.4442C96.9828 15.13 96.0366 16.2364 95.3778 17.7386C94.692 19.2406 94.3748 21.0845 94.3748 23.2996C94.3748 26.0408 94.8491 28.4919 95.7979 30.6773C96.7468 32.8926 98.0374 34.4733 99.699 35.501C101.331 36.5014 103.15 37.003 105.178 37.003C106.206 37.003 107.181 36.8702 108.157 36.6342C109.103 36.3714 110.342 35.8969 111.871 35.1836L112.478 35.9753ZM51.6093 30.257H53.3496C53.3741 31.4175 53.4283 32.3394 53.534 32.9982C53.6397 33.6816 53.797 34.3405 54.0329 34.9992C54.2712 35.6336 54.6401 36.187 55.1415 36.6342C55.6404 37.0817 56.169 37.426 56.7492 37.6619C57.3538 37.9248 57.9338 38.0849 58.5412 38.1635C59.1457 38.2422 60.0675 38.2936 61.3063 38.2936C63.3096 38.2936 64.9689 37.7406 66.2865 36.6613C67.5768 35.5795 68.2356 34.1316 68.2356 32.2608C68.2356 31.4175 68.0268 30.6773 67.6039 30.0455C67.2081 29.3868 66.6036 28.9123 65.8391 28.5435C65.0746 28.1747 63.4155 27.7002 60.886 27.147C58.3541 26.5669 56.7221 26.1466 55.9578 25.8809C54.8514 25.4606 53.9541 24.959 53.2955 24.3544C52.6367 23.7471 52.1106 23.0095 51.7421 22.0875C51.3463 21.1658 51.1347 20.1626 51.1347 19.0835C51.1347 17.5271 51.5575 16.0792 52.4009 14.7612C53.2439 13.4165 54.5342 12.3374 56.3263 11.5186C58.1182 10.7024 60.0675 10.2822 62.1765 10.2822C63.4669 10.2822 64.9173 10.4395 66.6036 10.7811C68.2627 11.1228 69.6072 11.5186 70.6592 12.0202C70.6077 14.2598 70.5804 16.5536 70.5561 18.8718H68.8156C68.7101 17.4212 68.5799 16.4478 68.4471 16.0006C68.3412 15.5261 68.1568 15.1302 67.9211 14.7614C67.7096 14.3926 67.3409 14.0238 66.7878 13.6009C66.2592 13.205 65.5488 12.8363 64.7059 12.4947C63.8356 12.1775 62.7812 12.0202 61.5448 12.0202C59.7772 12.0202 58.3541 12.5461 57.275 13.5738C56.2206 14.6286 55.6675 15.8407 55.6675 17.237C55.6675 18.0287 55.8248 18.6876 56.1417 19.2406C56.4591 19.8209 56.8523 20.2683 57.3807 20.6098C57.8824 20.9543 58.6197 21.2715 59.5415 21.5589L64.4674 22.798C66.9722 23.4297 68.6828 23.9856 69.6317 24.4331C70.5561 24.9074 71.3206 25.6179 71.8982 26.5669C72.4782 27.5431 72.7412 28.7008 72.7412 30.0728C72.7412 32.7596 71.635 35.1322 69.423 37.1358C67.2079 39.1369 64.2314 40.1401 60.5175 40.1401C58.8042 40.1401 56.5377 39.8772 53.6913 39.3484C52.1106 39.0582 51.2677 38.8468 51.1619 38.7167C51.0833 38.6624 51.0291 38.5566 51.0291 38.4266C51.0291 38.2936 51.056 38.1092 51.0833 37.9005C51.2677 37.0572 51.3977 36.2113 51.4518 35.3953C51.5307 34.579 51.5822 32.8655 51.6093 30.257ZM9.63542 32.6025C10.134 33.8417 10.8742 35.0536 11.8474 36.2384C12.8235 37.4262 14.0868 38.4266 15.67 39.191C17.2232 39.9802 19.148 40.3761 21.4118 40.3761C24.3124 40.3761 26.9719 39.6926 29.3955 38.2936C31.7946 36.9244 33.6654 35.0265 34.9828 32.6025C36.3004 30.1512 36.9861 27.4887 36.9861 24.5388C36.9861 20.347 35.6957 16.9224 33.1123 14.2598C30.5559 11.5973 27.2104 10.2822 23.1252 10.2822C18.7793 10.2822 15.2199 11.703 12.4546 14.55C9.66249 17.3969 8.29053 21.06 8.29053 25.5663C8.29053 28.069 8.7379 30.4143 9.63542 32.6025ZM16.0113 14.9727C17.5131 13.1533 19.4895 12.2558 21.9131 12.2558C23.6263 12.2558 25.2069 12.7303 26.6301 13.7064C28.0534 14.6555 29.2108 16.3148 30.1356 18.6602C31.0572 21.0055 31.5046 23.774 31.5046 26.9897C31.5046 30.8613 30.7398 33.7355 29.1867 35.6065C27.6576 37.4774 25.7328 38.3991 23.4422 38.3991C21.6501 38.3991 19.991 37.7946 18.462 36.607C16.906 35.4222 15.7483 33.5511 14.9567 30.9943C14.1406 28.4132 13.745 25.8807 13.745 23.3781C13.745 19.5849 14.4824 16.7623 16.0113 14.9727Z" fill="#F9F9F9"/>
</g>
</svg>
