<svg width="301" height="51" viewBox="0 0 301 51" fill="none" xmlns="http://www.w3.org/2000/svg">
<g opacity="0.5" clip-path="url(#clip0_87_205)">
<path d="M290.111 12.1767C287.606 12.1767 284.727 13.03 283.019 15.0567V2.61L275.927 0.5V39.105H283.019V23.695C283.179 20.8167 284.939 18.575 287.926 18.575C291.339 18.575 292.777 20.8683 292.777 23.8017V39.105H299.869V22.575C299.869 16.8167 296.777 12.1767 290.111 12.1767ZM239.027 12.07C234.204 12.07 229.669 14.8833 227.487 19.5633L233.651 21.395C234.407 19.515 236.267 17.8283 239.134 17.8283C243.187 17.8283 244.892 20.39 245.001 23.0017H226.387C226.212 23.9516 226.123 24.9156 226.124 25.8817C226.124 34.7317 232.469 39.905 239.667 39.905C246.117 39.905 250.279 36.1183 251.612 31.5867L245.692 29.8267C244.839 32.1733 243.026 33.8267 239.721 33.8267C236.201 33.8267 233.271 31.32 233.109 27.855H251.877C251.877 27.7483 251.984 26.68 251.984 25.6683C251.984 17.2433 247.134 12.07 239.027 12.07ZM107.592 23.2167L103.859 22.4167C102.421 22.15 101.459 21.35 101.459 20.07C101.459 18.5767 102.954 17.4583 104.819 17.4583C107.806 17.4583 108.926 19.43 109.139 20.9767L115.056 19.6433C114.739 16.8183 112.231 12.0717 104.766 12.0717C99.1158 12.0717 94.9541 15.965 94.9541 20.6567C94.9541 24.3367 97.2475 27.3767 102.314 28.495L105.781 29.295C107.806 29.7217 108.606 30.6817 108.606 31.855C108.606 33.2417 107.486 34.4683 105.139 34.4683C102.047 34.4683 100.501 32.5483 100.341 30.4683L94.2625 31.8017C94.5825 34.7883 97.3008 39.9067 105.192 39.9067C112.071 39.9067 115.376 35.5333 115.376 31.2683C115.376 27.43 112.766 24.285 107.592 23.2167ZM266.011 23.2167L262.277 22.4167C260.839 22.15 259.879 21.35 259.879 20.07C259.879 18.5767 261.372 17.4583 263.239 17.4583C266.224 17.4583 267.344 19.43 267.557 20.9767L273.477 19.6433C273.156 16.8183 270.651 12.0717 263.186 12.0717C257.534 12.0717 253.374 15.965 253.374 20.6567C253.374 24.3367 255.666 27.3767 260.732 28.495L264.199 29.295C266.224 29.7217 267.024 30.6817 267.024 31.855C267.024 33.2417 265.904 34.4683 263.557 34.4683C260.466 34.4683 258.919 32.5483 258.759 30.4683L252.681 31.8017C253.001 34.7883 255.719 39.9067 263.612 39.9067C270.491 39.9067 273.796 35.5333 273.796 31.2683C273.796 27.43 271.184 24.285 266.012 23.2167H266.011ZM171.307 12.1783C168.481 12.1783 165.336 13.405 163.736 16.125V12.87H156.857V39.1033H163.949V24.0167C163.949 20.9767 165.762 18.5767 168.854 18.5767C172.267 18.5767 173.707 20.87 173.707 23.8033V39.1067H180.799V22.5767C180.799 16.8183 177.814 12.1783 171.307 12.1783ZM146.407 15.965C145.502 14.205 143.102 12.3917 138.942 12.3917C131.744 12.3917 126.732 18.2583 126.732 25.19C126.732 32.5483 131.957 37.9333 138.942 37.9333C142.729 37.9333 145.181 36.28 146.247 34.575V36.4933C146.247 41.56 143.741 43.7983 139.264 43.7983C135.904 43.7983 133.611 41.72 133.131 38.84L126.731 40.545C127.479 45.5583 132.277 50.0367 139.476 50.0367C149.341 50.0367 153.232 43.4783 153.232 36.28V12.87H146.407V15.9633V15.965ZM140.169 31.855C136.489 31.855 133.877 29.295 133.877 25.1883C133.877 21.1383 136.649 18.5767 140.169 18.5767C143.581 18.5767 146.354 21.1367 146.354 25.19C146.354 29.2417 143.794 31.855 140.169 31.855ZM117.509 39.105H124.601V14.9817L117.509 12.8717V39.105ZM214.979 12.125C211.512 12.125 208.739 13.2983 206.661 16.4967C205.327 13.6717 202.447 12.125 198.876 12.125C195.996 12.125 192.636 13.5117 191.197 16.0717V12.8717H184.426V39.105H191.517V23.75C191.517 20.87 193.329 18.5767 196.422 18.5767C199.622 18.5767 201.061 20.71 201.061 23.535V39.1067H208.101V23.75C208.101 20.9233 209.912 18.5767 212.951 18.5767C216.204 18.5767 217.591 20.71 217.591 23.535V39.1067H224.469V22.095C224.469 15.0567 219.831 12.125 214.979 12.125ZM33.2491 8.91L24.8391 0.5L0.0708008 25.2667L24.8375 50.035L33.2491 41.625L41.6608 50.035L66.4275 25.2683L41.6608 0.5L33.2491 8.91ZM24.8391 40.0067L10.0991 25.2667L24.8391 10.5267L28.2341 13.9233L16.8925 25.2667L28.2341 36.6083L24.8391 40.005V40.0067ZM26.9225 25.2683L33.2491 18.94L39.5775 25.2683L33.2491 31.595L26.9225 25.2683ZM41.6608 40.0067L38.2641 36.61L49.6058 25.2683L38.2641 13.925L41.6608 10.5283L56.3991 25.2683L41.6608 40.0067Z" fill="black"/>
</g>
<defs>
<clipPath id="clip0_87_205">
<rect width="300" height="50" fill="white" transform="translate(0.0708008 0.5)"/>
</clipPath>
</defs>
</svg>
